<?xml version="1.0" encoding="utf-8"?>
<!-- Generator: Adobe Illustrator 16.0.0, SVG Export Plug-In . SVG Version: 6.00 Build 0)  -->
<!DOCTYPE svg PUBLIC "-//W3C//DTD SVG 1.1//EN" "http://www.w3.org/Graphics/SVG/1.1/DTD/svg11.dtd">
<svg version="1.1" id="Layer_1" xmlns="http://www.w3.org/2000/svg" xmlns:xlink="http://www.w3.org/1999/xlink" x="0px" y="0px"
	 width="435px" height="591px" viewBox="0 0 435 591" enable-background="new 0 0 435 591" xml:space="preserve">
<g>
	<path fill="#CACACA" d="M6.287,299.485c0-3.666,0-7.332,0-10.998c0.787-2.226,0.882-4.534,0.943-6.869
		c0.518-19.491,2.378-38.798,8.006-57.58c0.48-1.603,1.064-3.297,0.004-4.813c-3.135-4.481-5.3-9.59-8.953-13.729
		c0-0.333,0-0.667,0-1c3.563,2.13,7.034,4.44,10.708,6.359c11.021,5.759,23.155,7.258,35.246,8.569
		c14.23,1.545,28.509,2.673,42.776,3.867c3.061,0.256,4.518,0.991,3.8,4.573c-2.056,10.25,1.451,18.977,7.939,26.798
		c6.835,8.237,6.795,8.271-1.075,15.803c-6.812,6.52-7.96,12.275-2.887,19.989c3.103,4.72,4.359,9.199,3.727,14.881
		c-0.901,8.109,5.001,11.856,12.534,8.654c1.906-0.809,2.204-1.753,0.879-3.356c-4.996-6.046-8.015-13.354-12.792-19.616
		c-5.907-7.744-4.846-13.645,2.535-20.036c5.372-4.65,7.458-10.609,7.95-18.202c-2.338,5.881-4.449,3.46-6.587,0.718
		c-5.373-6.889-7.811-14.584-6.691-23.356c1.477-11.583,7.816-15.922,18.748-12.109c15.169,5.292,30.393,5.239,45.733,1.305
		c15.539-3.985,30.341-10.075,45.1-16.25c0.873-0.365,2.43-0.432,2.066-2.269c-2.861-0.847-5.772,0.291-8.728-0.182
		c5.912-3.569,11.966-6.606,17.897-9.867c2.413-1.327,5.825-2.506,5.745-5.657c-0.08-3.164-3.775-3.275-6.073-4.357
		c-6.918-3.256-8.648-6.683-7.287-14.985c1.368-8.349,5.052-12.349,12.103-12.991c2.816-0.257,5.679-0.116,8.471-0.508
		c2.96-0.415,4.296-2.045,3.371-5.302c-2.76-9.721-0.447-12.536,9.865-12.533c3.703,0.001,7.493,0.771,12.106-0.802
		c-7.906-6.038-14.453-12.686-24.314-13.149c-20.591-0.967-35.076,11.743-36.864,32.409c-1.36,15.717-4.117,30.775-12.319,44.831
		c-5.62,9.626-12.713,14.926-23.636,15.418c-0.497,0.022-0.99,0.137-1.487,0.187c-6.661,0.677-7.312-0.08-4.637-6.122
		c8.47-19.124,15.325-38.714,17.993-59.594c0.593-4.635,2.035-9.102,3.688-13.476c4.082-10.794,11.031-18.881,21.932-23.289
		c1.776-0.719,3.858-0.973,5.235-2.703c-16.146-1.862-27.394,5.842-30.959,21.119c-0.378,1.622-0.821,3.245-1.005,4.893
		c-2.04,18.307-7.979,35.745-11.987,53.611c-1.643,7.326-4.445,14.237-8.374,20.762c-2.588,4.299-5.661,5.508-10.357,4.554
		c-6.199-1.261-12.461-2.258-18.728-3.138c-8.12-1.142-15.643,0.468-21.972,5.922c-2.334,2.013-4.831,2.801-7.785,2.591
		c-9.631-0.683-19.282-1.164-28.889-2.095c-13.59-1.317-27.226-2.534-40.301-6.896c-6.574-2.194-6.582-2.49-2.756-8.495
		c11.934-18.734,28.437-32.924,45.758-46.337c3.929-3.043,8.495-5.487,11.223-9.817c14.916-23.671,36.176-39.939,61.309-51.069
		c30.361-13.444,61.733-18.85,94.308-7.983c2.003,0.669,3.876,0.481,5.825-0.31c12.99-5.266,16.144-19.461,6.612-29.77
		c-6.49-7.018-14.972-9.576-24.018-11.074c-14.727-2.438-29.221-0.751-43.669,2.169c-12.602,2.547-25.27,4.431-38.193,3.764
		c-9.252-0.478-17.664-3.265-24.888-9.156c-5.711-4.657-7.07-10.175-4.365-16.954c3.358-8.418,9.877-13.243,18.33-15.579
		c4.961-1.371,10.058-2.244,15.095-3.341c6.999,0,13.999,0,20.998,0c17.938,3.026,34.522,10.101,51.245,17.023
		c-12.357,1.744-24.304,0.068-36.324-2.732c5.636,2.42,11.272,4.839,17.781,7.633c-2.139,1.051-3.14,1.589-4.177,2.045
		c-11.181,4.902-22.169,3.153-33.056-1.04c-5.452-2.1-10.938-4.094-16.683-5.198c-6.125-1.177-12.271-1.488-18.17,1.104
		c-4.864,2.138-5.561,4.793-2.26,8.897c5.76,7.163,13.25,11.01,22.499,11.172c9.082,0.159,17.88-1.808,26.648-3.83
		c12.064-2.783,24.216-4.726,36.64-4.053c17.265,0.937,32.457,6.685,44.82,19.232c6.467,6.564,8.26,14.209,6.455,22.959
		c-1.188,5.76-3.476,11.121-6.18,16.311c-1.133,2.175-1.749,4.155-0.021,6.472c4.198,5.631,7.438,11.863,10.448,18.178
		c5.794,12.148,13.784,22.24,25.275,29.604c6.91,4.429,12.521,10.48,17.286,17.186c16.997,23.925,28.863,50.206,35.521,78.774
		c1.699,7.293,2.473,14.787,1.965,22.333c-0.92,13.694-3.628,27.057-7.356,40.241c-0.583,2.063-1.311,4.289-1.091,6.344
		c1.773,16.586,3.488,33.315,10.425,48.677c8.314,18.41,11.194,37.143,6.76,56.968c-1.516,6.775-0.186,13.213,3.825,19.058
		c7.219,10.514,11.232,22.247,12.899,34.832c1.319,9.961,3.124,19.85,8.249,28.64c8.557,14.68,17.194,29.34,28.291,42.322
		c6.21,7.266,11.28,15.258,15.813,23.63c2.274,4.198-0.037,7.114-2.961,9.491c-3.135,2.549-5.914,1.061-8.2-1.675
		c-1.377-1.648-2.712-3.333-4.862-5.981c0.416,3.214,0.632,5.019,0.886,6.817c0.806,5.693,0.128,6.551-5.676,7.481
		c-4.953,0.794-9.92,1.174-14.936,0.998c-14.049-0.493-22.243-8.529-22.78-22.499c-0.233-6.042-0.975-11.983-3.327-17.584
		c-3.448-8.208-5.276-16.81-6.872-25.52c-1.8-9.823-3.778-19.516-10.021-27.923c-5.95-8.013-11.093-16.627-16.548-25.006
		c-15.291-23.486-32.431-45.62-49.536-67.78c-1.469-1.902-3.078-3.812-0.628-6.061c2.094-1.92,3.763-5.378,7.433-3.199
		c13.466,7.998,26.976,15.94,37.645,27.765c7.122,7.895,10.6,17.614,14.135,27.338c2.416,6.643,5.65,12.864,9.771,18.695
		c-4.778-10.75-6.093-22.451-9.871-33.416c-1.074-3.119-2.665-6.151-4.505-8.896c-6.425-9.581-13.675-18.509-22.5-26.003
		c-5.346-4.537-11.398-8.107-17.4-11.709c-2.391-1.435-4.018-2.957-2.183-5.982c11.328-18.672,14.309-39.601,16.155-60.783
		c0.433-4.956,0.064-9.981,0.064-16.119c-2.731,4.383-2.503,8.269-2.687,11.915c-2.105,41.961-20.238,74.743-56.144,96.938
		c-13.337,8.244-22.003,19.559-26.835,34.151c-0.646,1.95-2.782,4.982-0.979,5.849c2.639,1.269,3.147-2.542,4.414-4.204
		c2.713-3.557,4.33-7.955,8.458-11.574c0.669,4.038,1.395,7.117,1.656,10.235c0.791,9.438,4.834,16.994,11.746,23.52
		c6.646,6.276,12.475,13.411,18.872,19.964c3.148,3.227,2.959,5.84-0.121,8.871c-3.693,3.637-6.865,4.068-10.5,1.236
		c-1.567-1.221-2.573-3.332-5.408-3.803c0.665,2.612,1.111,4.704,1.737,6.74c0.907,2.952,0.107,4.82-3.02,5.616
		c-8.236,2.098-16.438,4.318-25.05,4.282c-13.164-0.055-17.717-5.188-16.268-18.31c0.626-5.663,1.285-11.578-2.42-16.417
		c-5.841-7.629-8.963-16.238-10.824-25.509c-2.254-11.224-8.229-19.779-18.428-25.357c-3.107-1.698-5.806-0.946-8.555,0.274
		c-2.677,1.188-2.367,3.779-2.255,6.098c0.219,4.489,0.498,8.977,0.842,13.459c0.982,12.811,2.532,25.544,6.209,37.903
		c2.329,7.827,5.83,14.875,13.475,19.056c3.237,1.771,4.717,4.737,3.774,8.454c-1.8,7.095,0.887,12.724,5.55,17.747
		c2.734,2.944,5.26,6.025,6.971,9.7c1.296,2.781,2.285,5.73,1.169,8.702c-4.007,10.67-9.358,20.572-17.421,28.799
		c-0.802,0.818-1.849,1.424-2.851,2.012c-3.267,1.915-5.716,1.352-7.013-2.447c-0.915-2.68-1.808-5.368-2.761-8.034
		c-0.34-0.949-0.855-1.91-2.005-1.981c-1.474-0.092-1.943,1.12-2.344,2.211c-1.246,3.403-1.176,6.9-0.292,10.338
		c0.846,3.288,0.062,3.944-3.083,2.592c-8.033-3.456-15.46-7.921-21.946-13.73c-9.149-8.193-10.458-14.081-5.699-25.37
		c2.885-6.841,3.707-13.71,2.503-21.004c-1.029-6.241-1.834-12.534-2.399-18.835c-1.121-12.481-5.252-23.699-13.431-33.276
		c-3.459-4.051-6.769-8.345-10.786-11.781c-12.206-10.439-17.251-23.64-16.682-39.431c0.227-6.304-1.844-12.088-5.023-17.548
		c-5.118-8.79-12.622-15.462-19.714-22.474c-10.785-10.663-16.312-23.646-18.278-38.512c-2.021-15.281,0.293-30.229,2.709-45.204
		c0.311-1.921,0.666-3.836,1.001-5.753c-4.012,10.114-6.433,20.478-7.345,31.119c-1.945,22.672,3.077,43.054,20.032,59.393
		c5.192,5.005,9.186,10.974,13.322,16.824c6.087,8.611,8.771,17.53,6.581,28.513c-3.814,19.129-3.098,38.447,1.332,57.548
		c1.17,5.044,1.719,10.199,1.466,15.387c-0.396,8.105,1.021,15.849,3.593,23.55c3.834,11.481-0.774,21.769-11.708,26.983
		c-5.744,2.74-11.868,4.338-18.092,5.639c-3.436,0.719-4.994-0.716-5.686-3.824c-0.512-2.305-1.123-4.588-1.689-6.879
		c-1.437,1.89-1.901,3.643-2.504,5.346c-1.186,3.344-2.772,6.234-7.15,5.211c-4.385-1.025-6.857-4.368-6.179-8.73
		c1.255-8.062,2.085-16.268,5.104-23.908c4.568-11.557,6.76-23.68,9.241-35.754c1.223-5.957,1.066-11.856,0.419-17.882
		c-3.224-29.996-13.826-57.089-30.947-81.874c-12.909-18.69-20.799-39.321-22.825-62.182C7.263,314.057,8.254,306.654,6.287,299.485
		z M287.83,306.198c-0.063-3.588-1.731-5.156-5.718-4.412c-6.973,1.302-12.856-0.036-17.577-5.555
		c-0.499-0.584-1.398-1.282-2.021-1.204c-1.223,0.153-1.129,1.441-1.216,2.406c-0.385,4.307-0.697,8.62-1.121,12.922
		c-1.46,14.82-7.724,26.354-22.152,32.305c-4.149,1.713-8.271,3.501-12.364,5.344c-0.996,0.448-2.457,1.022-1.763,2.505
		c0.5,1.065,1.776,0.632,2.712,0.394c5.047-1.291,10.211-1.324,15.365-1.521c16.453-0.629,29.062-7.453,36.61-22.581
		c1.481-2.969,3.467-5.682,5.063-8.599C285.735,314.391,287.385,310.399,287.83,306.198z M166.592,386.74
		c0.363-24.977,5.253-49.064,11.28-73.017c1.3-5.164,3.882-7.229,8.979-7.212c3.982,0.013,7.985-0.318,11.945-0.781
		c13.569-1.593,17.257-5.299,19.72-18.823c0.659-3.62-0.24-5.557-3.782-6.813c-9.718-3.448-17.338-0.859-23.443,8.672
		c-3.725,5.815-7.619,11.509-13.828,14.781c-5.989,3.154-8.362,8.08-9.229,14.414c-1.578,11.548-2.932,23.117-3.706,34.746
		C163.769,364.147,164.969,375.492,166.592,386.74z M254.984,160.539c2.638,4.808,5.354,7.371,8.613,9.51
		c8.587,5.631,15.017,13.092,18.779,22.731c7.246,18.565,1.098,31.478-18.05,36.888c-15.058,4.254-30.307,7.832-45.408,11.938
		c-4.573,1.243-6.686-0.343-7.2-4.701c-0.271-2.307-0.431-4.644-0.394-6.964c0.095-6.022,2.503-11.452,5.308-17.488
		c-3.374,1.85-4.937,4.204-6.316,6.647c-6.73,11.927-4.15,22.64,6.707,28.111c4.936,2.487,8.007,1.611,10.425-3.38
		c1.113-2.299,3.019-3.013,5.093-3.561c11.107-2.932,22.231-5.796,33.354-8.669c5.323-1.376,10.67-2.681,15.581-5.267
		c9.474-4.988,13.605-12.933,12.117-23.541C290.47,180.506,274.762,169.612,254.984,160.539z M226.802,313.415
		c5.265-6.393,9.138-13.494,12.625-20.831c4.157-8.747,5.896-17.669,2.29-27.063c-1.145-2.983,0.004-4.091,3.02-3.604
		c6.127,0.99,12.311,0.923,18.454,0.573c15.146-0.861,27.132-7.84,36.851-19.5c-5.625-0.79-6.461-0.807-10.5,2.085
		c-14.086,10.084-29.055,13.24-45.816,7.289c-8.107-2.879-11.272,0.223-10.178,8.8c1.686,13.215,1.02,26.278-2.536,39.133
		C229.787,304.72,228.215,309.045,226.802,313.415z M153.722,427.878c-7.045-5.851-9.667-7.046-22.382-10.384
		c-11.283-2.96-14.208-7.53-11.901-18.913c0.492-2.429,1.419-4.776,2.234-7.131c1.684-4.867,3.753-9.583,4.621-14.738
		c2.282-13.581-0.2-26.865-2.256-40.176c-0.422-2.729-2.152-4.613-5.593-5.834c0.519,3.757,0.936,6.846,1.372,9.934
		c1.746,12.361,3.712,24.693,1.434,37.234c-1.262,6.947-4.598,13.201-6.29,19.974c-2.959,11.843-0.046,16.857,11.625,19.892
		c7.298,1.898,14.348,4.217,20.616,8.584C148.898,427.504,150.814,428.725,153.722,427.878z M215.744,354.703
		c-5.022,7.222-4.954,15.295-4.142,23.437c1.1,11.021-2.085,16.805-11.858,21.707c-3.08,1.544-5.605,2.024-8.719-0.22
		c-3.655-2.635-7.846-3.061-12.03-0.342c4.347-0.046,8.021,1.091,11.128,4.299c3.499,3.613,4.023,7.225,0.349,11.669
		c2.994-0.71,5.043-1.441,7.146-1.655c13.648-1.388,16.983-4.802,16.654-18.71C213.955,381.478,211.97,368.043,215.744,354.703z
		 M70.078,256.767c-0.038,1.938,1.167,2.083,1.941,2.573c8.153,5.165,17.22,5.747,26.491,5.15c1.169-0.076,3.086,0.448,3.003-1.6
		c-0.061-1.522-1.567-2.194-2.944-2.169C88.92,260.892,79.41,259.975,70.078,256.767z M182.559,410.72
		c2.115-0.015,5.058,1.118,5.097-2.187c0.038-3.163-2.955-3.042-5.265-3.068c-4.982-0.056-8.922,2.308-12.25,5.741
		c-1.134,1.169-3.709,2.337-2.095,4.308c1.453,1.772,3.371,0.095,4.791-0.97C175.77,412.341,178.545,409.849,182.559,410.72z"/>
	<path fill-rule="evenodd" clip-rule="evenodd" fill="none" d="M287.83,306.198c-0.445,4.201-2.095,8.192-4.182,12.004
		c-1.597,2.917-3.582,5.63-5.063,8.599c-7.549,15.128-20.157,21.952-36.61,22.581c-5.154,0.196-10.318,0.229-15.365,1.521
		c-0.936,0.238-2.212,0.672-2.712-0.394c-0.694-1.482,0.767-2.057,1.763-2.505c4.094-1.843,8.215-3.631,12.364-5.344
		c14.429-5.95,20.692-17.484,22.152-32.305c0.424-4.302,0.736-8.615,1.121-12.922c0.087-0.965-0.007-2.253,1.216-2.406
		c0.623-0.078,1.522,0.62,2.021,1.204c4.721,5.519,10.604,6.856,17.577,5.555C286.099,301.042,287.767,302.61,287.83,306.198z"/>
	<path fill-rule="evenodd" clip-rule="evenodd" fill="none" d="M254.984,160.539c19.777,9.073,35.485,19.967,38.61,42.253
		c1.488,10.608-2.644,18.553-12.117,23.541c-4.911,2.586-10.258,3.891-15.581,5.267c-11.123,2.873-22.247,5.737-33.354,8.669
		c-2.074,0.548-3.979,1.262-5.093,3.561c-2.418,4.992-5.489,5.867-10.425,3.38c-10.857-5.471-13.437-16.184-6.707-28.111
		c1.379-2.444,2.943-4.797,6.316-6.647c-2.805,6.036-5.213,11.465-5.308,17.488c-0.037,2.32,0.122,4.658,0.394,6.964
		c0.514,4.358,2.627,5.944,7.2,4.701c15.102-4.106,30.351-7.684,45.408-11.938c19.147-5.41,25.296-18.323,18.05-36.888
		c-3.763-9.64-10.192-17.101-18.779-22.731C260.338,167.91,257.622,165.347,254.984,160.539z"/>
	<path fill-rule="evenodd" clip-rule="evenodd" fill="none" d="M226.802,313.415c1.413-4.37,2.985-8.695,4.209-13.118
		c3.556-12.854,4.222-25.917,2.536-39.133c-1.095-8.578,2.07-11.679,10.178-8.8c16.762,5.951,31.73,2.795,45.816-7.289
		c4.039-2.892,4.875-2.875,10.5-2.085c-9.719,11.661-21.705,18.639-36.851,19.5c-6.144,0.35-12.327,0.417-18.454-0.573
		c-3.016-0.487-4.164,0.621-3.02,3.604c3.606,9.394,1.867,18.316-2.29,27.063C235.939,299.921,232.066,307.022,226.802,313.415z"/>
	<path fill-rule="evenodd" clip-rule="evenodd" fill="none" d="M153.722,427.878c-2.908,0.847-4.824-0.374-6.521-1.559
		c-6.268-4.367-13.318-6.686-20.616-8.584c-11.67-3.034-14.584-8.049-11.625-19.892c1.692-6.772,5.028-13.026,6.29-19.974
		c2.278-12.541,0.312-24.873-1.434-37.234c-0.437-3.088-0.854-6.177-1.372-9.934c3.441,1.221,5.171,3.105,5.593,5.834
		c2.056,13.311,4.539,26.595,2.256,40.176c-0.867,5.155-2.937,9.871-4.621,14.738c-0.814,2.354-1.742,4.702-2.234,7.131
		c-2.308,11.383,0.618,15.953,11.901,18.913C144.055,420.832,146.677,422.027,153.722,427.878z"/>
	<path fill-rule="evenodd" clip-rule="evenodd" fill="none" d="M215.744,354.703c-3.774,13.34-1.79,26.774-1.472,40.185
		c0.329,13.908-3.006,17.322-16.654,18.71c-2.103,0.214-4.152,0.945-7.146,1.655c3.674-4.444,3.15-8.056-0.349-11.669
		c-3.107-3.208-6.781-4.345-11.128-4.299c4.184-2.719,8.375-2.293,12.03,0.342c3.114,2.244,5.64,1.764,8.719,0.22
		c9.772-4.902,12.958-10.686,11.858-21.707C210.79,369.998,210.722,361.925,215.744,354.703z"/>
	<path fill-rule="evenodd" clip-rule="evenodd" fill="none" d="M70.078,256.767c9.332,3.208,18.843,4.125,28.492,3.954
		c1.377-0.024,2.883,0.647,2.944,2.169c0.083,2.048-1.834,1.523-3.003,1.6c-9.271,0.597-18.337,0.015-26.491-5.15
		C71.245,258.849,70.04,258.705,70.078,256.767z"/>
	<path fill-rule="evenodd" clip-rule="evenodd" fill="none" d="M182.559,410.72c-4.014-0.871-6.79,1.621-9.723,3.824
		c-1.419,1.064-3.337,2.742-4.791,0.97c-1.615-1.971,0.961-3.139,2.095-4.308c3.329-3.434,7.269-5.797,12.25-5.741
		c2.31,0.026,5.303-0.095,5.265,3.068C187.617,411.838,184.674,410.705,182.559,410.72z"/>
</g>
</svg>
