<?xml version="1.0" encoding="utf-8"?>
<!-- Generator: Adobe Illustrator 16.0.0, SVG Export Plug-In . SVG Version: 6.00 Build 0)  -->
<!DOCTYPE svg PUBLIC "-//W3C//DTD SVG 1.1//EN" "http://www.w3.org/Graphics/SVG/1.1/DTD/svg11.dtd">
<svg version="1.1" id="Layer_1" xmlns="http://www.w3.org/2000/svg" xmlns:xlink="http://www.w3.org/1999/xlink" x="0px" y="0px"
	 width="265px" height="95px" viewBox="0 0 265 95" enable-background="new 0 0 265 95" xml:space="preserve">
<rect x="84.417" fill="#B97232" width="2" height="95"/>
<g>
	<path fill="#272829" d="M111.155,62.414c0,0.344,0.031,0.617,0.094,0.82s0.15,0.359,0.264,0.469s0.244,0.182,0.393,0.217
		s0.309,0.053,0.48,0.053h1.008v1.277h-8.285v-1.277h1.008c0.18,0,0.344-0.018,0.492-0.053s0.277-0.107,0.387-0.217
		s0.195-0.266,0.258-0.469s0.094-0.477,0.094-0.82V49.582h-1.922c-0.359,0-0.66,0.039-0.902,0.117s-0.439,0.189-0.592,0.334
		s-0.266,0.322-0.34,0.533s-0.127,0.449-0.158,0.715l-0.164,1.488h-1.617l0.129-4.652h14.953l0.117,4.652h-1.605l-0.176-1.488
		c-0.031-0.266-0.084-0.504-0.158-0.715s-0.188-0.389-0.34-0.533s-0.35-0.256-0.592-0.334s-0.543-0.117-0.902-0.117h-1.922V62.414z"
		/>
	<path fill="#272829" d="M123.307,53.543c-0.305,0-0.561,0.064-0.768,0.193s-0.373,0.309-0.498,0.539s-0.213,0.504-0.264,0.82
		s-0.076,0.662-0.076,1.037c-1.078,0-1.889-0.121-2.432-0.363s-0.814-0.656-0.814-1.242c0-0.438,0.131-0.812,0.393-1.125
		s0.617-0.566,1.066-0.762s0.973-0.338,1.57-0.428s1.236-0.135,1.916-0.135c0.844,0,1.58,0.072,2.209,0.217s1.152,0.377,1.57,0.697
		s0.732,0.74,0.943,1.26c0.211,0.52,0.316,1.154,0.316,1.904v6.117c0,0.328,0.025,0.602,0.076,0.82s0.131,0.393,0.24,0.521
		s0.258,0.221,0.445,0.275s0.414,0.082,0.68,0.082h0.094v1.277h-4.464l-0.504-1.652h-0.211c-0.266,0.32-0.516,0.6-0.75,0.838
		s-0.484,0.436-0.75,0.592s-0.564,0.271-0.896,0.346s-0.725,0.111-1.178,0.111c-0.531,0-1.025-0.078-1.482-0.234
		s-0.855-0.396-1.195-0.721s-0.607-0.73-0.803-1.219s-0.293-1.064-0.293-1.729c0-1.305,0.447-2.27,1.342-2.895
		s2.24-0.965,4.037-1.02l1.969-0.07v-1.324c0-0.398-0.016-0.766-0.047-1.102s-0.098-0.625-0.199-0.867s-0.252-0.43-0.451-0.562
		S123.635,53.543,123.307,53.543z M121.174,61.676c0,0.688,0.109,1.203,0.328,1.547s0.562,0.516,1.031,0.516
		c0.344,0,0.654-0.072,0.932-0.217s0.516-0.35,0.715-0.615s0.352-0.588,0.457-0.967s0.158-0.803,0.158-1.271v-1.805l-1.078,0.07
		c-0.477,0.023-0.879,0.1-1.207,0.229s-0.59,0.307-0.785,0.533s-0.336,0.504-0.422,0.832S121.174,61.238,121.174,61.676z"/>
	<path fill="#272829" d="M141.377,65.25l-0.527-1.699h-0.117c-0.242,0.414-0.504,0.748-0.785,1.002s-0.582,0.449-0.902,0.586
		s-0.658,0.229-1.014,0.275s-0.721,0.07-1.096,0.07c-1.25,0-2.209-0.387-2.877-1.16s-1.002-1.969-1.002-3.586v-5.379
		c0-0.352-0.031-0.637-0.094-0.855s-0.16-0.391-0.293-0.516s-0.303-0.211-0.51-0.258s-0.455-0.07-0.744-0.07h-0.047v-1.277h5.332
		v7.688c0,0.516,0.029,0.98,0.088,1.395s0.158,0.768,0.299,1.061s0.328,0.52,0.562,0.68s0.527,0.24,0.879,0.24
		c0.383,0,0.713-0.084,0.99-0.252s0.504-0.41,0.68-0.727s0.305-0.699,0.387-1.148s0.123-0.955,0.123-1.518v-4.605
		c0-0.352-0.047-0.629-0.141-0.832s-0.219-0.357-0.375-0.463s-0.34-0.172-0.551-0.199s-0.434-0.041-0.668-0.041h-0.07v-1.277h5.449
		v10.078c0,0.352,0.041,0.627,0.123,0.826s0.193,0.35,0.334,0.451s0.309,0.166,0.504,0.193s0.41,0.041,0.645,0.041h0.199v1.277
		H141.377z"/>
	<path fill="#272829" d="M155.252,65.25h-8.016v-1.277h0.07c0.273,0,0.523-0.02,0.75-0.059s0.422-0.119,0.586-0.24
		s0.291-0.295,0.381-0.521s0.135-0.527,0.135-0.902v-6.961c0-0.352-0.041-0.635-0.123-0.85s-0.199-0.381-0.352-0.498
		s-0.334-0.193-0.545-0.229s-0.449-0.053-0.715-0.053h-0.07v-1.277h4.852l0.48,1.875h0.117c0.156-0.359,0.328-0.674,0.516-0.943
		s0.412-0.494,0.674-0.674s0.57-0.314,0.926-0.404s0.779-0.135,1.271-0.135c0.945,0,1.641,0.166,2.086,0.498
		s0.668,0.814,0.668,1.447c0,0.734-0.266,1.305-0.797,1.711s-1.281,0.609-2.25,0.609c0-0.328-0.018-0.617-0.053-0.867
		s-0.098-0.457-0.188-0.621s-0.211-0.289-0.363-0.375s-0.342-0.129-0.568-0.129c-0.281,0-0.523,0.07-0.727,0.211
		s-0.375,0.322-0.516,0.545s-0.256,0.475-0.346,0.756s-0.16,0.564-0.211,0.85s-0.084,0.557-0.1,0.814s-0.023,0.48-0.023,0.668v4.148
		c0,0.352,0.043,0.635,0.129,0.85s0.203,0.377,0.352,0.486s0.326,0.182,0.533,0.217s0.428,0.053,0.662,0.053h0.773V65.25z"/>
	<path fill="#272829" d="M172.889,58.77c0,2.258-0.529,3.941-1.588,5.051s-2.615,1.664-4.67,1.664c-0.961,0-1.824-0.139-2.59-0.416
		s-1.416-0.693-1.951-1.248s-0.945-1.254-1.23-2.098s-0.428-1.828-0.428-2.953c0-2.258,0.529-3.938,1.588-5.039
		s2.619-1.652,4.682-1.652c0.961,0,1.822,0.137,2.584,0.41s1.41,0.688,1.945,1.242s0.945,1.252,1.23,2.092
		S172.889,57.645,172.889,58.77z M164.158,58.77c0,0.852,0.045,1.602,0.135,2.25s0.234,1.191,0.434,1.629s0.459,0.768,0.779,0.99
		s0.711,0.334,1.172,0.334s0.85-0.111,1.166-0.334s0.574-0.553,0.773-0.99s0.342-0.98,0.428-1.629s0.129-1.398,0.129-2.25
		c0-0.859-0.045-1.611-0.135-2.256s-0.234-1.182-0.434-1.611s-0.459-0.752-0.779-0.967s-0.711-0.322-1.172-0.322
		s-0.852,0.107-1.172,0.322s-0.578,0.537-0.773,0.967s-0.336,0.967-0.422,1.611S164.158,57.91,164.158,58.77z"/>
	<path fill="#272829" d="M102.084,94.05v-1.277h1.008c0.18,0,0.344-0.018,0.492-0.053s0.277-0.107,0.387-0.217
		s0.195-0.266,0.258-0.469s0.094-0.477,0.094-0.82V79.753c0-0.344-0.031-0.617-0.094-0.82s-0.148-0.359-0.258-0.469
		s-0.238-0.182-0.387-0.217s-0.312-0.053-0.492-0.053h-1.008v-1.277h8.285v1.277h-1.008c-0.172,0-0.334,0.018-0.486,0.053
		s-0.283,0.107-0.393,0.217s-0.195,0.266-0.258,0.469s-0.094,0.477-0.094,0.82v11.461c0,0.344,0.031,0.617,0.094,0.82
		s0.148,0.359,0.258,0.469s0.24,0.182,0.393,0.217s0.314,0.053,0.486,0.053h1.008v1.277H102.084z"/>
	<path fill="#272829" d="M121.092,94.05v-7.898c0-0.516-0.033-0.975-0.1-1.377s-0.176-0.74-0.328-1.014s-0.352-0.482-0.598-0.627
		s-0.545-0.217-0.896-0.217c-0.398,0-0.73,0.102-0.996,0.305s-0.479,0.475-0.639,0.814s-0.275,0.734-0.346,1.184
		s-0.105,0.92-0.105,1.412v4.582c0,0.336,0.041,0.605,0.123,0.809s0.197,0.361,0.346,0.475s0.33,0.188,0.545,0.223
		s0.455,0.053,0.721,0.053h0.07v1.277h-7.371v-1.277h0.047c0.273,0,0.523-0.018,0.75-0.053s0.424-0.111,0.592-0.229
		s0.299-0.285,0.393-0.504s0.141-0.508,0.141-0.867v-7.102c0-0.336-0.041-0.605-0.123-0.809s-0.199-0.361-0.352-0.475
		s-0.334-0.188-0.545-0.223s-0.449-0.053-0.715-0.053h-0.07v-1.277h5.039l0.316,1.711h0.117c0.242-0.453,0.498-0.812,0.768-1.078
		s0.557-0.469,0.861-0.609s0.627-0.23,0.967-0.27s0.697-0.059,1.072-0.059c0.617,0,1.172,0.09,1.664,0.27s0.908,0.457,1.248,0.832
		s0.6,0.854,0.779,1.436s0.27,1.279,0.27,2.092v5.566c0,0.375,0.033,0.674,0.1,0.896s0.166,0.393,0.299,0.51
		s0.301,0.195,0.504,0.234s0.441,0.059,0.715,0.059h0.07v1.277H121.092z"/>
	<path fill="#272829" d="M141.588,82.46h-0.48c-0.164,0-0.311,0.02-0.439,0.059s-0.254,0.119-0.375,0.24s-0.24,0.297-0.357,0.527
		s-0.246,0.537-0.387,0.92l-3.48,9.844h-3.164l-3.938-10.441c-0.086-0.227-0.186-0.414-0.299-0.562s-0.246-0.266-0.398-0.352
		s-0.328-0.146-0.527-0.182s-0.432-0.053-0.697-0.053v-1.277h7.441v1.277h-1.008c-0.242,0-0.436,0.064-0.58,0.193
		s-0.217,0.318-0.217,0.568c0,0.195,0.025,0.387,0.076,0.574s0.1,0.348,0.146,0.48l1.605,4.547c0.195,0.508,0.365,1.02,0.51,1.535
		s0.256,0.977,0.334,1.383c0.039-0.188,0.094-0.406,0.164-0.656s0.141-0.494,0.211-0.732s0.135-0.455,0.193-0.65
		s0.1-0.332,0.123-0.41l1.629-4.816c0.078-0.219,0.143-0.439,0.193-0.662s0.076-0.443,0.076-0.662c0-0.266-0.088-0.447-0.264-0.545
		s-0.4-0.146-0.674-0.146h-0.691v-1.277h5.273V82.46z"/>
	<path fill="#272829" d="M148.936,94.284c-1.016,0-1.912-0.148-2.689-0.445s-1.428-0.727-1.951-1.289s-0.918-1.252-1.184-2.068
		s-0.398-1.748-0.398-2.795c0-1.125,0.133-2.113,0.398-2.965s0.652-1.562,1.16-2.133s1.131-0.998,1.869-1.283
		s1.58-0.428,2.525-0.428c0.867,0,1.648,0.123,2.344,0.369s1.285,0.611,1.77,1.096s0.855,1.086,1.113,1.805s0.387,1.555,0.387,2.508
		v1.23h-7.863c0.023,0.805,0.111,1.496,0.264,2.074s0.363,1.055,0.633,1.43s0.598,0.652,0.984,0.832s0.83,0.27,1.33,0.27
		c0.414,0,0.797-0.049,1.148-0.146s0.67-0.234,0.955-0.41s0.535-0.383,0.75-0.621s0.393-0.494,0.533-0.768
		c0.43,0.234,0.645,0.625,0.645,1.172c0,0.344-0.094,0.67-0.281,0.979s-0.477,0.58-0.867,0.814s-0.881,0.422-1.471,0.562
		S149.748,94.284,148.936,94.284z M148.713,82.437c-0.672,0-1.205,0.332-1.6,0.996s-0.611,1.637-0.65,2.918h4.148
		c0-0.609-0.035-1.156-0.105-1.641s-0.182-0.895-0.334-1.23s-0.348-0.594-0.586-0.773S149.057,82.437,148.713,82.437z"/>
	<path fill="#272829" d="M160.83,94.284c-0.867,0-1.607-0.07-2.221-0.211s-1.113-0.336-1.5-0.586s-0.668-0.547-0.844-0.891
		s-0.264-0.715-0.264-1.113c0-0.391,0.076-0.705,0.229-0.943s0.344-0.424,0.574-0.557s0.475-0.221,0.732-0.264
		s0.492-0.064,0.703-0.064c0,0.5,0.062,0.949,0.188,1.348s0.301,0.736,0.527,1.014s0.498,0.49,0.814,0.639s0.67,0.223,1.061,0.223
		c0.414,0,0.771-0.043,1.072-0.129s0.547-0.205,0.738-0.357s0.334-0.328,0.428-0.527s0.141-0.408,0.141-0.627
		c0-0.266-0.049-0.502-0.146-0.709s-0.26-0.402-0.486-0.586s-0.529-0.363-0.908-0.539s-0.85-0.361-1.412-0.557
		c-0.648-0.227-1.221-0.467-1.717-0.721s-0.914-0.543-1.254-0.867s-0.598-0.695-0.773-1.113s-0.264-0.896-0.264-1.436
		c0-0.641,0.123-1.199,0.369-1.676s0.596-0.873,1.049-1.189s0.996-0.553,1.629-0.709s1.336-0.234,2.109-0.234
		c0.758,0,1.402,0.064,1.934,0.193s0.965,0.299,1.301,0.51s0.582,0.449,0.738,0.715s0.234,0.535,0.234,0.809
		c0,0.539-0.189,0.949-0.568,1.23s-1.006,0.422-1.881,0.422c0-0.797-0.178-1.416-0.533-1.857s-0.881-0.662-1.576-0.662
		c-0.258,0-0.506,0.031-0.744,0.094s-0.445,0.156-0.621,0.281s-0.316,0.279-0.422,0.463s-0.158,0.4-0.158,0.65
		c0,0.258,0.049,0.488,0.146,0.691s0.27,0.396,0.516,0.58s0.58,0.369,1.002,0.557s0.961,0.395,1.617,0.621
		c0.531,0.188,1.021,0.4,1.471,0.639s0.836,0.512,1.16,0.82s0.576,0.66,0.756,1.055s0.27,0.846,0.27,1.354
		c0,0.664-0.115,1.258-0.346,1.781s-0.568,0.965-1.014,1.324s-0.992,0.635-1.641,0.826S161.658,94.284,160.83,94.284z"/>
	<path fill="#272829" d="M174.529,92.351c0.312,0,0.611-0.021,0.896-0.064s0.553-0.096,0.803-0.158v1.559
		c-0.125,0.062-0.295,0.129-0.51,0.199s-0.465,0.135-0.75,0.193s-0.607,0.107-0.967,0.146s-0.75,0.059-1.172,0.059
		c-0.539,0-1.027-0.064-1.465-0.193s-0.809-0.344-1.113-0.645s-0.539-0.691-0.703-1.172s-0.246-1.072-0.246-1.775v-7.676h-1.805
		v-1.23c0.516,0,0.977-0.102,1.383-0.305s0.73-0.438,0.973-0.703c0.492-0.516,0.859-1.309,1.102-2.379h1.992v2.977h3.07v1.641h-3.07
		v7.43c0,0.727,0.123,1.258,0.369,1.594S173.967,92.351,174.529,92.351z"/>
	<path fill="#272829" d="M186.764,94.05v-7.898c0-0.516-0.033-0.975-0.1-1.377s-0.176-0.74-0.328-1.014s-0.352-0.482-0.598-0.627
		s-0.545-0.217-0.896-0.217c-0.398,0-0.73,0.102-0.996,0.305s-0.479,0.475-0.639,0.814s-0.275,0.734-0.346,1.184
		s-0.105,0.92-0.105,1.412v4.582c0,0.336,0.041,0.605,0.123,0.809s0.197,0.361,0.346,0.475s0.33,0.188,0.545,0.223
		s0.455,0.053,0.721,0.053h0.07v1.277h-7.371v-1.277h0.047c0.273,0,0.523-0.018,0.75-0.053s0.424-0.111,0.592-0.229
		s0.299-0.285,0.393-0.504s0.141-0.508,0.141-0.867v-7.172c0-0.336-0.041-0.605-0.123-0.809s-0.199-0.361-0.352-0.475
		s-0.334-0.188-0.545-0.223s-0.449-0.053-0.715-0.053h-0.07v-1.207h5.039l0.316,1.711h0.117c0.242-0.453,0.498-0.812,0.768-1.078
		s0.557-0.469,0.861-0.609s0.627-0.23,0.967-0.27s0.697-0.059,1.072-0.059c0.883,0,1.637,0.158,2.262,0.475s1.082,0.83,1.371,1.541
		h0.211c0.242-0.453,0.506-0.812,0.791-1.078s0.59-0.469,0.914-0.609s0.664-0.23,1.02-0.27s0.721-0.059,1.096-0.059
		c0.617,0,1.172,0.09,1.664,0.27s0.908,0.457,1.248,0.832s0.6,0.854,0.779,1.436s0.27,1.279,0.27,2.092v5.566
		c0,0.375,0.033,0.674,0.1,0.896s0.166,0.393,0.299,0.51s0.301,0.195,0.504,0.234s0.438,0.059,0.703,0.059h0.07v1.277h-5.332v-7.898
		c0-1.031-0.143-1.828-0.428-2.391s-0.779-0.844-1.482-0.844c-0.375,0-0.695,0.092-0.961,0.275s-0.482,0.432-0.65,0.744
		s-0.291,0.678-0.369,1.096s-0.117,0.857-0.117,1.318v4.723c0,0.375,0.033,0.674,0.1,0.896s0.166,0.393,0.299,0.51
		s0.301,0.195,0.504,0.234s0.441,0.059,0.715,0.059h0.07v1.277H186.764z"/>
	<path fill="#272829" d="M207.717,94.284c-1.016,0-1.912-0.148-2.689-0.445s-1.428-0.727-1.951-1.289s-0.918-1.252-1.184-2.068
		s-0.398-1.748-0.398-2.795c0-1.125,0.133-2.113,0.398-2.965s0.652-1.562,1.16-2.133s1.131-0.998,1.869-1.283
		s1.58-0.428,2.525-0.428c0.867,0,1.648,0.123,2.344,0.369s1.285,0.611,1.77,1.096s0.855,1.086,1.113,1.805s0.387,1.555,0.387,2.508
		v1.23h-7.863c0.023,0.805,0.111,1.496,0.264,2.074s0.363,1.055,0.633,1.43s0.598,0.652,0.984,0.832s0.83,0.27,1.33,0.27
		c0.414,0,0.797-0.049,1.148-0.146s0.67-0.234,0.955-0.41s0.535-0.383,0.75-0.621s0.393-0.494,0.533-0.768
		c0.43,0.234,0.645,0.625,0.645,1.172c0,0.344-0.094,0.67-0.281,0.979s-0.477,0.58-0.867,0.814s-0.881,0.422-1.471,0.562
		S208.529,94.284,207.717,94.284z M207.494,82.437c-0.672,0-1.205,0.332-1.6,0.996s-0.611,1.637-0.65,2.918h4.148
		c0-0.609-0.035-1.156-0.105-1.641s-0.182-0.895-0.334-1.23s-0.348-0.594-0.586-0.773S207.838,82.437,207.494,82.437z"/>
	<path fill="#272829" d="M224.123,94.05v-7.898c0-0.516-0.033-0.975-0.1-1.377s-0.176-0.74-0.328-1.014s-0.352-0.482-0.598-0.627
		s-0.545-0.217-0.896-0.217c-0.398,0-0.73,0.102-0.996,0.305s-0.479,0.475-0.639,0.814s-0.275,0.734-0.346,1.184
		s-0.105,0.92-0.105,1.412v4.582c0,0.336,0.041,0.605,0.123,0.809s0.197,0.361,0.346,0.475s0.33,0.188,0.545,0.223
		s0.455,0.053,0.721,0.053h0.07v1.277h-7.371v-1.277h0.047c0.273,0,0.523-0.018,0.75-0.053s0.424-0.111,0.592-0.229
		s0.299-0.285,0.393-0.504s0.141-0.508,0.141-0.867v-7.102c0-0.336-0.041-0.605-0.123-0.809s-0.199-0.361-0.352-0.475
		s-0.334-0.188-0.545-0.223s-0.449-0.053-0.715-0.053h-0.07v-1.277h5.039l0.316,1.711h0.117c0.242-0.453,0.498-0.812,0.768-1.078
		s0.557-0.469,0.861-0.609s0.627-0.23,0.967-0.27s0.697-0.059,1.072-0.059c0.617,0,1.172,0.09,1.664,0.27s0.908,0.457,1.248,0.832
		s0.6,0.854,0.779,1.436s0.27,1.279,0.27,2.092v5.566c0,0.375,0.033,0.674,0.1,0.896s0.166,0.393,0.299,0.51
		s0.301,0.195,0.504,0.234s0.441,0.059,0.715,0.059h0.07v1.277H224.123z"/>
	<path fill="#272829" d="M237.611,92.351c0.312,0,0.611-0.021,0.896-0.064s0.553-0.096,0.803-0.158v1.559
		c-0.125,0.062-0.295,0.129-0.51,0.199s-0.465,0.135-0.75,0.193s-0.607,0.107-0.967,0.146s-0.75,0.059-1.172,0.059
		c-0.539,0-1.027-0.064-1.465-0.193s-0.809-0.344-1.113-0.645s-0.539-0.691-0.703-1.172s-0.246-1.072-0.246-1.775v-7.676h-1.805
		v-1.23c0.516,0,0.977-0.102,1.383-0.305s0.73-0.438,0.973-0.703c0.492-0.516,0.859-1.309,1.102-2.379h1.992v2.977h3.07v1.641h-3.07
		v7.43c0,0.727,0.123,1.258,0.369,1.594S237.049,92.351,237.611,92.351z"/>
	<path fill="#272829" d="M245.334,94.284c-0.867,0-1.607-0.07-2.221-0.211s-1.113-0.336-1.5-0.586s-0.668-0.547-0.844-0.891
		s-0.264-0.715-0.264-1.113c0-0.391,0.076-0.705,0.229-0.943s0.344-0.424,0.574-0.557s0.475-0.221,0.732-0.264
		s0.492-0.064,0.703-0.064c0,0.5,0.062,0.949,0.188,1.348s0.301,0.736,0.527,1.014s0.498,0.49,0.814,0.639s0.67,0.223,1.061,0.223
		c0.414,0,0.771-0.043,1.072-0.129s0.547-0.205,0.738-0.357s0.334-0.328,0.428-0.527s0.141-0.408,0.141-0.627
		c0-0.266-0.049-0.502-0.146-0.709s-0.26-0.402-0.486-0.586s-0.529-0.363-0.908-0.539s-0.85-0.361-1.412-0.557
		c-0.648-0.227-1.221-0.467-1.717-0.721s-0.914-0.543-1.254-0.867s-0.598-0.695-0.773-1.113s-0.264-0.896-0.264-1.436
		c0-0.641,0.123-1.199,0.369-1.676s0.596-0.873,1.049-1.189s0.996-0.553,1.629-0.709s1.336-0.234,2.109-0.234
		c0.758,0,1.402,0.064,1.934,0.193s0.965,0.299,1.301,0.51s0.582,0.449,0.738,0.715s0.234,0.535,0.234,0.809
		c0,0.539-0.189,0.949-0.568,1.23s-1.006,0.422-1.881,0.422c0-0.797-0.178-1.416-0.533-1.857s-0.881-0.662-1.576-0.662
		c-0.258,0-0.506,0.031-0.744,0.094s-0.445,0.156-0.621,0.281s-0.316,0.279-0.422,0.463s-0.158,0.4-0.158,0.65
		c0,0.258,0.049,0.488,0.146,0.691s0.27,0.396,0.516,0.58s0.58,0.369,1.002,0.557s0.961,0.395,1.617,0.621
		c0.531,0.188,1.021,0.4,1.471,0.639s0.836,0.512,1.16,0.82s0.576,0.66,0.756,1.055s0.27,0.846,0.27,1.354
		c0,0.664-0.115,1.258-0.346,1.781s-0.568,0.965-1.014,1.324s-0.992,0.635-1.641,0.826S246.162,94.284,245.334,94.284z"/>
</g>
<g>
	<g>
		<defs>
			<rect id="SVGID_1_" y="0" width="69.173" height="95"/>
		</defs>
		<clipPath id="SVGID_2_">
			<use xlink:href="#SVGID_1_"  overflow="visible"/>
		</clipPath>
		<g clip-path="url(#SVGID_2_)">
			<defs>
				<rect id="SVGID_3_" y="0" width="69.173" height="95"/>
			</defs>
			<clipPath id="SVGID_4_">
				<use xlink:href="#SVGID_3_"  overflow="visible"/>
			</clipPath>
			<path clip-path="url(#SVGID_4_)" fill-rule="evenodd" clip-rule="evenodd" fill="#FFFFFF" d="M2.591,32.982
				c0.539,0.269,1.105,0.469,1.687,0.623c1.068,0.282,2.153,0.476,3.247,0.623c1.397,0.188,2.802,0.306,4.206,0.426
				c0.991,0.085,1.982,0.157,2.977,0.191c0.341,0.012,0.688,0.008,1.021,0.111c0.106,0.034,0.134-0.063,0.174-0.12
				c0.184-0.259,0.418-0.465,0.676-0.647c0.623-0.44,1.318-0.672,2.079-0.72c0.82-0.053,1.624,0.065,2.426,0.213
				c0.724,0.133,1.443,0.287,2.173,0.38c0.187,0.023,0.373,0.041,0.56,0.056c0.144,0.012,0.261-0.037,0.339-0.165
				c0.452-0.741,0.951-1.456,1.264-2.273c0.249-0.651,0.454-1.317,0.6-1.998c0.333-1.562,0.785-3.092,1.182-4.636
				c0.263-1.023,0.439-2.065,0.593-3.111c0.139-0.945,0.32-1.88,0.608-2.794c0.229-0.721,0.684-1.236,1.33-1.603
				c0.453-0.256,0.941-0.416,1.446-0.534c0.772-0.18,1.558-0.244,2.356-0.307c-0.077,0.082-0.173,0.097-0.259,0.128
				c-0.44,0.161-0.872,0.343-1.299,0.538c-1.41,0.64-2.402,1.693-3.055,3.084c-0.415,0.884-0.674,1.816-0.846,2.773
				c-0.189,1.055-0.344,2.116-0.586,3.161c-0.354,1.528-0.876,3-1.456,4.455c-0.405,1.017-0.841,2.021-1.273,3.027
				c-0.034,0.078-0.083,0.151-0.085,0.252c0.33,0.035,0.653-0.016,0.977-0.041c1.02-0.08,2.005-0.322,2.97-0.654
				c0.107-0.038,0.195-0.09,0.258-0.189c0.364-0.575,0.743-1.141,1.098-1.722c0.633-1.04,1.165-2.126,1.499-3.302
				c0.183-0.642,0.28-1.3,0.356-1.96c0.102-0.879,0.156-1.763,0.285-2.639c0.078-0.528,0.201-1.043,0.396-1.542
				c0.368-0.935,0.997-1.658,1.824-2.21c1.121-0.748,2.355-1.109,3.706-1.054c0.483,0.019,0.941,0.139,1.374,0.36
				c0.77,0.395,1.459,0.91,2.137,1.441c0.207,0.164,0.413,0.328,0.618,0.493c-0.053,0.075-0.114,0.047-0.163,0.048
				c-0.587,0.023-1.172,0.013-1.758-0.065c-0.411-0.055-0.83-0.054-1.233,0.08c-0.435,0.145-0.754,0.406-0.86,0.876
				c-0.069,0.306,0.001,0.59,0.14,0.862c0.071,0.138,0.16,0.269,0.23,0.408c0.139,0.277,0.09,0.429-0.176,0.585
				c-0.166,0.097-0.346,0.15-0.532,0.171c-0.35,0.041-0.701,0.075-1.055,0.054c-0.171-0.009-0.345-0.005-0.517,0
				c-0.44,0.014-0.799,0.195-1.085,0.527c-0.149,0.173-0.27,0.366-0.36,0.575c-0.271,0.626-0.402,1.283-0.383,1.966
				c0.018,0.578,0.276,1.016,0.79,1.297c0.199,0.108,0.41,0.191,0.618,0.28c0.215,0.093,0.429,0.189,0.643,0.285
				c0.094,0.042,0.181,0.095,0.253,0.169c0.117,0.119,0.131,0.215,0.042,0.356c-0.096,0.156-0.231,0.274-0.378,0.38
				c-0.21,0.153-0.439,0.27-0.669,0.388c-1.138,0.589-2.276,1.181-3.414,1.772c-0.033,0.018-0.064,0.04-0.095,0.072
				c0.808-0.112,1.603-0.39,2.438-0.19c-0.001,0.08-0.062,0.078-0.094,0.092c-2.476,1.073-4.984,2.054-7.575,2.817
				c-1.302,0.383-2.628,0.577-3.982,0.568c-1.107-0.008-2.205-0.115-3.265-0.458c-0.461-0.148-0.91-0.338-1.385-0.439
				c-0.269-0.057-0.538-0.095-0.815-0.044c-0.315,0.058-0.569,0.211-0.774,0.452c-0.37,0.432-0.59,0.938-0.714,1.487
				c-0.247,1.106-0.11,2.162,0.432,3.161c0.338,0.622,0.752,1.19,1.223,1.718c0.015,0.016,0.038,0.024,0.062,0.04
				c0.187-0.414,0.31-0.846,0.482-1.259c-0.041,1.286-0.297,2.483-1.372,3.346c-0.141,0.112-0.276,0.231-0.411,0.351
				c-0.542,0.479-0.686,1.081-0.533,1.769c0.117,0.529,0.354,1.001,0.679,1.431c0.085,0.113,0.172,0.224,0.265,0.33
				c0.391,0.445,0.707,0.936,0.932,1.485c0.203,0.494,0.518,0.908,0.911,1.267c0.074,0.067,0.164,0.123,0.209,0.219
				c-0.444,0.189-0.894,0.337-1.386,0.31c-0.315-0.017-0.618-0.094-0.924-0.158c-0.104-0.022-0.129-0.093-0.147-0.185
				c-0.103-0.511-0.124-1.024-0.07-1.542c0.028-0.265,0.046-0.53,0.108-0.791c0.034-0.138-0.003-0.266-0.1-0.371
				c-0.242-0.259-0.414-0.568-0.609-0.861c-0.274-0.41-0.434-0.869-0.495-1.354c-0.079-0.628,0.12-1.172,0.555-1.632
				c0.062-0.065,0.155-0.108,0.173-0.21c0.045-0.078,0.123-0.12,0.192-0.17c0.443-0.329,0.831-0.714,1.159-1.157
				c0.154-0.207,0.152-0.222-0.027-0.387c-0.341-0.314-0.641-0.666-0.95-1.009c-0.675-0.752-1.096-1.642-1.323-2.611
				c-0.174-0.749-0.112-1.51,0.138-2.247c0.028-0.079,0.084-0.152,0.061-0.256c-0.498-0.035-0.996-0.072-1.495-0.106
				c-0.562-0.039-1.125-0.071-1.687-0.115c-0.663-0.051-1.326-0.109-1.988-0.17C9.42,35.239,8.734,35.176,8.05,35.1
				c-0.863-0.097-1.723-0.217-2.58-0.36c-0.833-0.139-1.667-0.284-2.465-0.567c-0.376-0.132-0.462-0.15-0.82-0.317"/>
			<path clip-path="url(#SVGID_4_)" fill-rule="evenodd" clip-rule="evenodd" fill="#B87132" d="M38.467,13.348
				c0.039,0.067,0.113,0.08,0.175,0.109c0.9,0.429,1.688,1.008,2.35,1.756c0.026,0.028,0.058,0.05,0.087,0.076
				c0.279,0.377,0.565,0.75,0.812,1.15c0.463,0.755,0.859,1.546,1.271,2.329c0.276,0.527,0.567,1.046,0.856,1.566
				c0.504,0.906,1.189,1.646,2.006,2.274c0.534,0.411,1.088,0.792,1.616,1.211c1.22,0.972,2.212,2.144,3.08,3.432
				c0.915,1.361,1.679,2.807,2.396,4.279c0.445,0.915,0.904,1.825,1.256,2.78c0.592,1.608,1.128,3.235,1.504,4.91
				c0.304,1.355,0.366,2.728,0.281,4.111c-0.128,2.089-0.593,4.117-1.159,6.122c-0.161,0.569-0.209,1.119-0.133,1.706
				c0.189,1.443,0.395,2.884,0.697,4.309c0.254,1.2,0.652,2.35,1.118,3.48c0.331,0.803,0.664,1.605,0.89,2.446
				c0.331,1.228,0.474,2.475,0.391,3.744c-0.044,0.672-0.148,1.337-0.248,2.002c-0.066,0.441-0.14,0.881-0.177,1.327
				c-0.073,0.872,0.158,1.657,0.646,2.375c0.384,0.563,0.729,1.149,1.023,1.767c0.529,1.109,0.882,2.271,1.075,3.485
				c0.137,0.857,0.236,1.722,0.431,2.569c0.267,1.169,0.701,2.273,1.326,3.297c0.938,1.537,1.917,3.048,2.913,4.549
				c0.456,0.687,1.001,1.306,1.533,1.932c0.958,1.13,1.718,2.388,2.435,3.677c0.011,0.02,0.013,0.044,0.019,0.066
				c-0.146-0.098-0.233-0.249-0.341-0.38c-1.383-1.675-2.754-3.36-4.078-5.082c-0.065-0.085-0.123-0.186-0.25-0.191
				c-0.021-0.134-0.159-0.198-0.197-0.322c0.007-0.09-0.062-0.14-0.109-0.2c-0.736-0.945-1.469-1.893-2.14-2.887
				c-1.082-1.602-1.778-3.353-2.113-5.254c-0.176-0.993-0.355-1.985-0.549-2.976c-0.207-1.051-0.607-2.021-1.136-2.942
				c-0.242-0.422-0.497-0.836-0.778-1.231c-0.498-0.701-0.625-1.484-0.559-2.321c0.058-0.727,0.2-1.441,0.311-2.159
				c0.139-0.888,0.161-1.774,0.094-2.669c-0.069-0.941-0.239-1.861-0.533-2.758c-0.22-0.67-0.5-1.317-0.777-1.964
				c-0.643-1.497-1.059-3.058-1.343-4.657c-0.212-1.195-0.352-2.398-0.497-3.603c-0.024-0.205,0.02-0.404,0.072-0.602
				c0.314-1.204,0.642-2.403,0.88-3.625c0.273-1.408,0.496-2.82,0.456-4.262c-0.03-1.061-0.171-2.105-0.406-3.138
				c-0.691-3.051-1.837-5.929-3.322-8.677c-0.417-0.771-0.84-1.54-1.337-2.265c-0.885-1.292-1.899-2.468-3.104-3.476
				c-0.349-0.292-0.709-0.569-1.089-0.819c-1.313-0.863-2.314-2-3.029-3.398c-0.429-0.836-0.861-1.669-1.298-2.502
				c-0.375-0.716-0.82-1.385-1.345-2.004c-0.539-0.635-1.223-1.064-1.928-1.478c-1.147-0.671-2.402-1.02-3.697-1.232
				c-1.167-0.191-2.345-0.311-3.53-0.267c-1.458,0.055-2.899,0.247-4.322,0.571c-3.197,0.726-6.143,2.031-8.885,3.816
				c-0.499,0.324-0.989,0.662-1.458,1.028c-0.051,0.04-0.094,0.111-0.179,0.075c0.022-0.102,0.116-0.14,0.186-0.197
				c2.663-2.197,5.632-3.831,8.939-4.836c1.357-0.412,2.734-0.732,4.138-0.927c1.212-0.168,2.431-0.241,3.653-0.147
				c1.399,0.108,2.783,0.304,4.122,0.748C37.797,13.088,38.13,13.223,38.467,13.348"/>
			<path clip-path="url(#SVGID_4_)" fill-rule="evenodd" clip-rule="evenodd" fill="#B87132" d="M1.606,35.2
				c-0.012-0.083-0.074-0.135-0.12-0.197c-0.557-0.741-1.031-1.533-1.423-2.372C0.047,32.596,0.034,32.561,0,32.476
				c0.111,0.088,0.183,0.148,0.257,0.205c0.081,0.062,0.166,0.118,0.244,0.183c0.74,0.616,1.608,0.992,2.503,1.307
				c0.799,0.283,1.632,0.428,2.466,0.567c0.856,0.144,1.716,0.264,2.579,0.36c0.685,0.077,1.37,0.14,2.057,0.203
				c0.662,0.061,1.325,0.118,1.988,0.17c0.562,0.044,1.125,0.076,1.687,0.115c0.499,0.034,0.996,0.071,1.494,0.106
				c0.023,0.104-0.033,0.177-0.06,0.256c-0.25,0.737-0.312,1.499-0.138,2.247c0.226,0.969,0.647,1.859,1.323,2.611
				c0.309,0.344,0.608,0.695,0.949,1.008c0.181,0.166,0.181,0.183,0.028,0.388c-0.329,0.444-0.716,0.829-1.161,1.158
				c-0.068,0.05-0.146,0.093-0.191,0.169c-0.945-0.041-1.893-0.068-2.832-0.198c-1.923-0.265-3.67-0.956-5.196-2.174
				c-0.367-0.294-0.723-0.598-1.078-0.906c-0.058-0.05-0.128-0.091-0.172-0.196c0.766-0.001,1.524,0.058,2.267-0.104
				c0.731-0.16,1.457-0.341,2.179-0.613c-0.089-0.087-0.168-0.075-0.242-0.079c-1.001-0.053-1.995-0.177-2.974-0.387
				c-2.3-0.493-4.306-1.533-5.955-3.231C1.882,35.495,1.776,35.318,1.606,35.2 M15.823,42.37c-0.156-0.189-0.286-0.353-0.362-0.55
				c-0.036-0.091-0.118-0.086-0.198-0.083c-0.258,0.011-0.517,0.021-0.775,0.033c-0.659,0.032-1.314,0-1.964-0.104
				c-0.828-0.134-1.629-0.374-2.419-0.651c-0.079-0.027-0.153-0.079-0.25-0.063c0.01,0.046,0.044,0.064,0.074,0.086
				c0.398,0.292,0.812,0.56,1.252,0.783c0.448,0.227,0.917,0.395,1.411,0.496c0.867,0.18,1.742,0.162,2.618,0.109
				C15.403,42.412,15.595,42.39,15.823,42.37"/>
			<path clip-path="url(#SVGID_4_)" fill-rule="evenodd" clip-rule="evenodd" fill="#B87132" d="M36.085,33.516
				c0.08,0.052,0.157,0.064,0.261,0.054c0.614-0.059,1.229-0.116,1.841-0.195c0.945-0.123,1.892-0.236,2.806-0.521
				c0.441-0.138,0.871-0.305,1.228-0.615c0.497-0.429,0.761-0.982,0.85-1.624c0.097-0.698-0.073-1.351-0.354-1.982
				c-0.284-0.637-0.657-1.225-1.047-1.802c-0.046-0.067-0.126-0.122-0.108-0.223c0.053-0.015,0.088,0.023,0.126,0.048
				c0.805,0.51,1.532,1.112,2.156,1.834c1.167,1.353,1.777,2.911,1.718,4.711c-0.037,1.106-0.489,1.988-1.406,2.624
				c-0.466,0.324-0.973,0.565-1.51,0.745c-0.674,0.227-1.366,0.391-2.056,0.564c-2.183,0.548-4.376,1.047-6.529,1.709
				c-0.151,0.046-0.172,0.039-0.238-0.101c-0.125-0.272-0.201-0.56-0.25-0.853c-0.15-0.889-0.059-1.76,0.215-2.615
				c0.149-0.464,0.361-0.899,0.617-1.313c0.033-0.051,0.143-0.102,0.046-0.19c-0.004-0.016-0.015-0.022-0.031-0.021l-0.003,0.002
				c0.037,0.081,0.093,0.056,0.12,0.004c0.082-0.149,0.217-0.146,0.36-0.16C35.294,33.559,35.692,33.579,36.085,33.516"/>
			<path clip-path="url(#SVGID_4_)" fill-rule="evenodd" clip-rule="evenodd" fill="#FFFFFF" d="M41.756,47.08
				c0.181,0.211,0.324,0.386,0.474,0.555c0.32,0.361,0.679,0.668,1.143,0.836c0.527,0.193,1.06,0.163,1.598,0.064
				c0.2-0.036,0.399-0.079,0.604-0.069c0.303,0.015,0.428,0.13,0.44,0.433c0.019,0.46-0.082,0.9-0.24,1.33
				c-0.129,0.354-0.291,0.692-0.48,1.018c-0.43,0.736-0.867,1.471-1.33,2.187c-0.375,0.581-0.803,1.121-1.351,1.554
				c-0.689,0.545-1.485,0.859-2.335,1.043c-0.958,0.209-1.934,0.297-2.913,0.33c-0.519,0.017-1.03,0.056-1.525,0.228
				c-0.146,0.051-0.301,0.071-0.429,0.1c-0.042-0.018-0.041-0.028-0.035-0.048c0.159-0.443,0.159-0.443,0.611-0.61
				c0.778-0.286,1.55-0.587,2.282-0.979c0.505-0.271,0.994-0.565,1.428-0.941c0.751-0.652,1.202-1.492,1.487-2.431
				c0.241-0.79,0.355-1.604,0.423-2.423c0.05-0.609,0.088-1.219,0.107-1.829C41.721,47.324,41.74,47.223,41.756,47.08"/>
			<path clip-path="url(#SVGID_4_)" fill-rule="evenodd" clip-rule="evenodd" fill="#FFFFFF" d="M26.173,62.807
				c-0.199-1.84-0.361-3.646-0.301-5.462c0.032-0.986,0.111-1.969,0.214-2.95c0.123-1.168,0.287-2.33,0.445-3.493
				c0.037-0.271,0.097-0.539,0.183-0.8c0.137-0.408,0.38-0.734,0.747-0.963c0.166-0.104,0.335-0.204,0.509-0.292
				c0.547-0.279,0.994-0.676,1.378-1.15c0.405-0.5,0.733-1.052,1.089-1.586c0.323-0.485,0.74-0.867,1.266-1.125
				c0.538-0.263,1.094-0.349,1.686-0.2c0.434,0.109,0.856,0.243,1.268,0.417c0.107,0.046,0.162,0.103,0.136,0.23
				c-0.123,0.605-0.225,1.215-0.421,1.803c-0.047,0.14-0.104,0.279-0.163,0.414c-0.342,0.79-0.939,1.246-1.791,1.38
				c-0.549,0.086-1.103,0.136-1.657,0.179c-0.742,0.056-1.484,0.098-2.227,0.146c-0.197,0.013-0.203,0.013-0.262,0.2
				c-0.126,0.403-0.214,0.816-0.314,1.227c-0.237,0.973-0.493,1.939-0.701,2.919c-0.346,1.623-0.643,3.253-0.792,4.909
				c-0.11,1.201-0.177,2.404-0.229,3.609C26.229,62.404,26.234,62.592,26.173,62.807"/>
			<path clip-path="url(#SVGID_4_)" fill-rule="evenodd" clip-rule="evenodd" fill="#FFFFFF" d="M34.453,33.77
				c0.097,0.089-0.014,0.139-0.046,0.19c-0.256,0.415-0.468,0.849-0.617,1.313c-0.274,0.855-0.366,1.727-0.215,2.616
				c0.049,0.293,0.125,0.581,0.25,0.853c0.065,0.14,0.086,0.147,0.237,0.101c2.153-0.662,4.346-1.161,6.529-1.709
				c0.689-0.174,1.382-0.337,2.056-0.564c0.537-0.18,1.043-0.421,1.51-0.745c0.917-0.636,1.369-1.517,1.405-2.624
				c0.06-1.8-0.55-3.359-1.717-4.711c-0.624-0.722-1.351-1.325-2.156-1.834c-0.038-0.024-0.073-0.062-0.126-0.048l0.002,0
				c-0.006-0.053-0.05-0.061-0.089-0.074c-0.283-0.374-0.565-0.748-0.846-1.12c0.016-0.031,0.037-0.037,0.059-0.026
				c1.206,0.582,2.386,1.204,3.448,2.035c1.233,0.965,2.092,2.187,2.574,3.674c0.289,0.893,0.37,1.803,0.184,2.732
				c-0.158,0.792-0.581,1.405-1.225,1.88c-0.62,0.456-1.322,0.733-2.049,0.958c-0.98,0.302-1.981,0.516-2.979,0.751
				c-1.46,0.346-2.9,0.767-4.341,1.187c-0.116,0.035-0.173,0.089-0.145,0.214c0.008,0.031,0.003,0.062,0.006,0.094
				c0.057,0.542-0.182,0.775-0.764,0.896c-0.226,0.046-0.457,0.013-0.664-0.094c-0.425-0.22-0.834-0.465-1.192-0.787
				c-0.629-0.564-0.841-1.279-0.751-2.1c0.042-0.398,0.144-0.782,0.267-1.163c0.226-0.697,0.637-1.268,1.172-1.757
				c0.046-0.042,0.086-0.091,0.148-0.11C34.403,33.789,34.429,33.779,34.453,33.77"/>
			<path clip-path="url(#SVGID_4_)" fill-rule="evenodd" clip-rule="evenodd" fill="#FFFFFF" d="M35.947,50.659
				c0.383-1,0.747-2.006,0.985-3.053c0.337-1.483,0.473-2.98,0.369-4.5c-0.045-0.649-0.131-1.292-0.222-1.935
				c-0.018-0.123-0.004-0.23,0.046-0.34c0.261-0.572,0.55-0.724,1.16-0.564c0.476,0.124,0.944,0.28,1.418,0.412
				c0.697,0.192,1.407,0.298,2.133,0.275c1.051-0.034,2.033-0.326,2.971-0.784c0.669-0.327,1.286-0.743,1.887-1.181
				c0.153-0.112,0.307-0.177,0.498-0.163c0.331,0.025,0.655-0.024,0.973-0.086c0.028,0.024,0.021,0.044,0.005,0.062
				c-0.612,0.639-1.246,1.256-1.964,1.779c-1.02,0.742-2.167,1.167-3.396,1.4c-1.176,0.223-2.352,0.19-3.528,0.013
				c-0.271-0.041-0.542-0.076-0.813-0.113c-0.085-0.012-0.173-0.017-0.247-0.067c-0.034-0.023-0.059-0.016-0.081,0.01
				c-0.015,0.019-0.004,0.038,0.007,0.061c0.708,1.303,0.872,2.655,0.367,4.069c-0.385,1.08-0.913,2.091-1.492,3.077
				c-0.329,0.56-0.673,1.109-1.01,1.665C35.991,50.683,35.969,50.671,35.947,50.659"/>
			<path clip-path="url(#SVGID_4_)" fill-rule="evenodd" clip-rule="evenodd" fill="#FFFFFF" d="M18.314,53.095
				c0.272,0.23,0.522,0.442,0.772,0.653c0.07,0.06,0.095,0.137,0.108,0.227c0.204,1.314,0.402,2.631,0.495,3.959
				c0.079,1.136,0.049,2.269-0.212,3.385c-0.116,0.497-0.308,0.968-0.496,1.44c-0.225,0.566-0.449,1.134-0.564,1.736
				c-0.088,0.457-0.124,0.914-0.031,1.375c0.115,0.578,0.443,0.989,0.961,1.259c0.399,0.207,0.833,0.312,1.265,0.417
				c0.517,0.126,1.03,0.261,1.535,0.429c0.382,0.127,0.737,0.301,1.067,0.529c0.367,0.254,0.73,0.514,1.145,0.688
				c0.011,0.005,0.018,0.023,0.025,0.034c-0.289,0.107-0.568,0.049-0.842-0.06c-0.256-0.101-0.5-0.23-0.717-0.397
				c-0.851-0.655-1.836-0.988-2.866-1.222c-0.343-0.078-0.685-0.162-1.016-0.282c-0.117-0.043-0.232-0.093-0.345-0.145
				c-0.657-0.303-0.972-0.827-1.011-1.539c-0.031-0.58,0.082-1.136,0.262-1.683c0.172-0.52,0.407-1.017,0.587-1.532
				c0.36-1.039,0.506-2.111,0.521-3.206c0.014-1.028-0.086-2.049-0.218-3.066c-0.127-0.978-0.268-1.953-0.434-2.925
				C18.3,53.155,18.307,53.14,18.314,53.095"/>
			<path clip-path="url(#SVGID_4_)" fill-rule="evenodd" clip-rule="evenodd" fill="#FFFFFF" d="M27.899,64.612
				c0.293-0.224,0.608-0.399,0.98-0.463c0.151-0.026,0.3-0.022,0.442,0.019c0.494,0.141,0.966,0.324,1.308,0.734
				c0.065,0.079,0.13,0.066,0.207,0.04c0.222-0.078,0.437-0.172,0.646-0.275c0.204-0.101,0.403-0.207,0.606-0.31
				c0.588-0.298,1-0.767,1.3-1.344c0.17-0.328,0.207-0.687,0.229-1.046c0.036-0.55-0.009-1.097-0.071-1.642
				c-0.124-1.087,0.053-2.119,0.543-3.098c0.052-0.104,0.115-0.204,0.174-0.305c0.012-0.02,0.022-0.043,0.066-0.035
				c-0.053,0.28-0.106,0.563-0.161,0.847c-0.144,0.737-0.279,1.477-0.342,2.225c-0.052,0.611-0.014,1.221,0.051,1.83
				c0.081,0.771,0.184,1.54,0.158,2.317c-0.016,0.479-0.076,0.95-0.265,1.398c-0.32,0.756-0.889,1.165-1.703,1.246
				c-0.352,0.035-0.702,0.056-1.054,0.009c-0.099-0.014-0.193-0.004-0.26,0.074c-0.263,0.3-0.583,0.286-0.947,0.173
				c0.068-0.062,0.14-0.044,0.198-0.054c0.368-0.065,0.582-0.298,0.606-0.669c0.017-0.25-0.047-0.481-0.175-0.694
				c-0.222-0.369-0.519-0.668-0.885-0.891c-0.299-0.182-0.632-0.217-0.975-0.185C28.351,64.536,28.128,64.573,27.899,64.612"/>
			<path clip-path="url(#SVGID_4_)" fill-rule="evenodd" clip-rule="evenodd" d="M18.392,5.673c0.519,0.5,1.127,0.866,1.786,1.149
				c0.942,0.403,1.935,0.557,2.95,0.588c1.233,0.037,2.454-0.106,3.67-0.285c1.168-0.171,2.324-0.422,3.488-0.617
				c0.918-0.154,1.842-0.277,2.774-0.303c0.8-0.021,1.597,0.007,2.392,0.101c0.714,0.084,1.427,0.192,2.113,0.417
				c0.95,0.311,1.814,0.761,2.497,1.517c0.517,0.572,0.834,1.229,0.87,2.002c0.036,0.793-0.179,1.5-0.778,2.059
				c-0.248,0.231-0.521,0.427-0.816,0.589c-0.288,0.156-0.58,0.305-0.871,0.457c0.04,0.067,0.113,0.08,0.175,0.109
				c0.9,0.43,1.688,1.008,2.35,1.756c0.026,0.028,0.058,0.05,0.087,0.076c0.089-0.174,0.181-0.347,0.267-0.522
				c0.42-0.849,0.806-1.712,1.041-2.635c0.199-0.783,0.239-1.559-0.026-2.335c-0.244-0.715-0.691-1.292-1.222-1.813
				c-0.866-0.851-1.883-1.472-2.983-1.966c-1.593-0.715-3.277-0.965-5.01-0.951c-1.533,0.012-3.041,0.223-4.535,0.555
				c-1.26,0.279-2.515,0.587-3.806,0.703c-0.571,0.051-1.145,0.079-1.712,0.007c-1.297-0.163-2.338-0.796-3.161-1.802
				c-0.1-0.121-0.185-0.253-0.251-0.396c-0.182-0.39-0.099-0.651,0.275-0.864c0.744-0.425,1.548-0.572,2.396-0.519
				c0.811,0.052,1.587,0.26,2.354,0.515c0.837,0.277,1.66,0.599,2.505,0.857c1.105,0.339,2.212,0.398,3.332,0.106
				c0.561-0.146,1.093-0.377,1.627-0.598c0.045-0.019,0.108-0.019,0.117-0.1c-1.143-0.312-2.21-0.82-3.292-1.292
				c-0.086-0.037-0.181-0.071-0.256-0.19c0.094,0.019,0.154,0.029,0.213,0.045c0.279,0.076,0.558,0.151,0.835,0.231
				c0.669,0.194,1.336,0.393,2.031,0.473c0.357,0.041,0.717,0.071,1.076,0.096c0.601,0.043,1.201,0.113,1.804,0.124
				c0.218,0.004,0.439,0.003,0.654-0.052c0.046-0.013,0.102-0.021,0.115-0.069c0.015-0.059-0.03-0.101-0.074-0.136
				c-0.119-0.094-0.258-0.148-0.397-0.198c-1.626-0.583-3.25-1.172-4.879-1.745c-1.246-0.438-2.533-0.691-3.853-0.773
				C26.024,0.019,25.833,0,25.584,0h-1.082c-0.187,0.022-0.359,0.022-0.54,0.045c-0.798,0.051-1.587,0.155-2.371,0.315
				c-0.6,0.123-1.184,0.297-1.727,0.585c-0.977,0.519-1.691,1.278-2.063,2.333c-0.11,0.311-0.158,0.635-0.142,0.969
				C17.689,4.834,17.987,5.283,18.392,5.673"/>
			<polygon clip-path="url(#SVGID_4_)" fill-rule="evenodd" clip-rule="evenodd" fill="#151719" points="15.894,18.797 
				15.896,18.797 15.896,18.795 			"/>
			<polygon clip-path="url(#SVGID_4_)" fill-rule="evenodd" clip-rule="evenodd" fill="#151719" points="15.571,19.086 
				15.572,19.086 15.573,19.084 			"/>
			<polygon clip-path="url(#SVGID_4_)" fill-rule="evenodd" clip-rule="evenodd" fill="#151719" points="15.844,18.842 
				15.846,18.842 15.848,18.84 			"/>
			<polygon clip-path="url(#SVGID_4_)" fill-rule="evenodd" clip-rule="evenodd" fill="#151719" points="16.09,18.617 16.09,18.617 
				16.09,18.616 			"/>
			<path clip-path="url(#SVGID_4_)" fill-rule="evenodd" clip-rule="evenodd" d="M69.03,92.32c-0.038-0.038-0.062-0.089-0.093-0.135
				c-0.146-0.098-0.233-0.249-0.341-0.38c-1.383-1.675-2.754-3.36-4.078-5.082c-0.065-0.085-0.123-0.186-0.25-0.191
				c-0.387,0.146-0.781,0.274-1.16,0.44c-0.516,0.226-1.044,0.229-1.586,0.157c-0.226-0.029-0.438-0.114-0.656-0.168
				c-0.116-0.028-0.137-0.063-0.272-0.33c0.164,0.02,0.314,0.032,0.463,0.056c0.823,0.12,1.618,0.008,2.397-0.271
				c0.205-0.073,0.398-0.179,0.618-0.207c0.007-0.091-0.062-0.14-0.109-0.2c-0.736-0.945-1.469-1.893-2.14-2.887
				c-1.082-1.602-1.778-3.353-2.113-5.253c-0.176-0.994-0.354-1.986-0.548-2.977c-0.207-1.051-0.607-2.021-1.136-2.942
				c-0.242-0.422-0.497-0.836-0.778-1.231c-0.498-0.701-0.625-1.484-0.559-2.321c0.058-0.727,0.199-1.441,0.311-2.16
				c0.139-0.887,0.161-1.773,0.094-2.668c-0.069-0.941-0.239-1.861-0.533-2.758c-0.22-0.67-0.5-1.317-0.777-1.964
				c-0.643-1.497-1.06-3.058-1.343-4.657c-0.212-1.195-0.352-2.398-0.497-3.603c-0.024-0.205,0.02-0.404,0.072-0.602
				c0.314-1.204,0.642-2.403,0.879-3.625c0.274-1.408,0.496-2.82,0.456-4.262c-0.03-1.061-0.171-2.105-0.406-3.138
				c-0.691-3.051-1.837-5.929-3.322-8.677c-0.417-0.771-0.841-1.54-1.337-2.265c-0.885-1.291-1.899-2.468-3.104-3.476
				c-0.349-0.292-0.709-0.569-1.089-0.819c-1.313-0.863-2.314-2-3.029-3.398c-0.429-0.836-0.861-1.669-1.298-2.501
				c-0.375-0.716-0.82-1.386-1.345-2.004c-0.539-0.636-1.223-1.064-1.927-1.478c-1.147-0.671-2.402-1.02-3.697-1.232
				c-1.167-0.191-2.345-0.312-3.53-0.266c-1.458,0.055-2.899,0.246-4.322,0.57c-3.197,0.726-6.143,2.031-8.884,3.816
				c-0.5,0.325-0.989,0.662-1.459,1.028c-0.051,0.039-0.094,0.11-0.178,0.075c-0.023,0.126-0.111,0.179-0.229,0.193
				c0.006,0.042-0.01,0.056-0.05,0.044c0.008,0.042-0.01,0.054-0.049,0.044c-0.021,0.107-0.098,0.154-0.195,0.18
				c0,0.033-0.018,0.048-0.049,0.045c-0.064,0.112-0.154,0.194-0.274,0.244c-0.002,0.037-0.025,0.052-0.06,0.054
				c-1.008,0.958-1.935,1.985-2.697,3.153c-0.064,0.098-0.136,0.193-0.188,0.298c-0.203,0.412-0.515,0.712-0.88,0.985
				c-1.611,1.208-3.188,2.459-4.674,3.819c-1.716,1.57-3.186,3.341-4.369,5.346C2.661,32.814,2.6,32.88,2.592,32.98
				c0.538,0.269,1.104,0.469,1.686,0.623c1.067,0.282,2.153,0.476,3.248,0.623c1.397,0.188,2.801,0.306,4.206,0.426
				c0.991,0.085,1.982,0.158,2.977,0.192c0.341,0.012,0.688,0.008,1.021,0.111c0.105,0.033,0.134-0.064,0.174-0.122
				c0.184-0.259,0.418-0.465,0.675-0.646c0.623-0.44,1.319-0.671,2.079-0.721c0.82-0.053,1.625,0.065,2.427,0.213
				c0.723,0.133,1.442,0.287,2.172,0.38c0.187,0.024,0.374,0.041,0.561,0.056c0.143,0.012,0.261-0.037,0.339-0.165
				c0.452-0.741,0.952-1.456,1.264-2.273c0.249-0.651,0.455-1.317,0.6-1.998c0.333-1.562,0.785-3.092,1.182-4.636
				c0.263-1.024,0.439-2.065,0.594-3.111c0.138-0.945,0.319-1.88,0.608-2.794c0.228-0.721,0.683-1.236,1.329-1.603
				c0.453-0.256,0.941-0.416,1.446-0.534c0.772-0.18,1.558-0.244,2.356-0.307c-0.078,0.082-0.173,0.096-0.258,0.128
				c-0.441,0.162-0.872,0.344-1.3,0.538c-1.41,0.64-2.402,1.693-3.055,3.084c-0.416,0.884-0.675,1.815-0.846,2.774
				c-0.189,1.054-0.345,2.116-0.586,3.16c-0.354,1.528-0.875,3-1.457,4.455c-0.405,1.018-0.841,2.021-1.273,3.027
				c-0.033,0.078-0.083,0.151-0.086,0.251c0.33,0.036,0.654-0.016,0.977-0.04c1.021-0.079,2.005-0.322,2.97-0.654
				c0.107-0.038,0.195-0.09,0.258-0.189c0.365-0.575,0.743-1.141,1.098-1.722c0.633-1.04,1.166-2.126,1.5-3.302
				c0.183-0.642,0.279-1.3,0.355-1.96c0.102-0.878,0.157-1.763,0.285-2.639c0.078-0.527,0.201-1.044,0.397-1.541
				c0.368-0.936,0.996-1.66,1.825-2.211c1.121-0.748,2.355-1.109,3.705-1.054c0.483,0.02,0.941,0.139,1.374,0.36
				c0.77,0.395,1.46,0.91,2.137,1.441c0.207,0.163,0.413,0.328,0.618,0.492c-0.053,0.076-0.114,0.047-0.163,0.049
				c-0.587,0.023-1.172,0.013-1.758-0.065c-0.412-0.055-0.83-0.054-1.232,0.08c-0.436,0.145-0.755,0.406-0.861,0.876
				c-0.068,0.306,0.002,0.59,0.141,0.862c0.07,0.139,0.16,0.269,0.229,0.409c0.139,0.278,0.09,0.429-0.176,0.585
				c-0.165,0.097-0.345,0.15-0.532,0.171c-0.35,0.041-0.701,0.075-1.054,0.054c-0.172-0.009-0.345-0.005-0.518,0
				c-0.439,0.014-0.799,0.196-1.085,0.527c-0.149,0.174-0.27,0.366-0.359,0.575c-0.271,0.627-0.403,1.283-0.383,1.965
				c0.018,0.579,0.276,1.018,0.79,1.297c0.199,0.109,0.411,0.192,0.618,0.281c0.216,0.093,0.429,0.189,0.643,0.285
				c0.094,0.042,0.181,0.096,0.253,0.169c0.118,0.119,0.131,0.215,0.043,0.356c-0.097,0.156-0.231,0.274-0.379,0.381
				c-0.209,0.152-0.439,0.269-0.668,0.388c-1.139,0.589-2.276,1.181-3.414,1.773c-0.034,0.017-0.065,0.039-0.096,0.071
				c0.808-0.113,1.604-0.39,2.438-0.19c-0.001,0.079-0.061,0.077-0.094,0.091c-2.476,1.074-4.984,2.055-7.575,2.818
				c-1.302,0.383-2.628,0.578-3.982,0.568c-1.107-0.008-2.205-0.114-3.266-0.458c-0.46-0.148-0.909-0.339-1.385-0.439
				c-0.269-0.057-0.538-0.095-0.815-0.044c-0.314,0.059-0.568,0.212-0.774,0.452c-0.37,0.432-0.591,0.938-0.714,1.487
				c-0.247,1.106-0.11,2.162,0.432,3.161c0.337,0.622,0.752,1.19,1.224,1.718c0.014,0.016,0.038,0.025,0.062,0.04
				c0.187-0.414,0.309-0.847,0.481-1.26c-0.041,1.286-0.296,2.484-1.372,3.346c-0.141,0.112-0.276,0.231-0.411,0.351
				c-0.541,0.479-0.686,1.081-0.532,1.769c0.116,0.527,0.353,1,0.678,1.431c0.085,0.113,0.173,0.224,0.266,0.33
				c0.39,0.445,0.706,0.936,0.931,1.484c0.204,0.495,0.519,0.908,0.912,1.267c0.074,0.068,0.163,0.124,0.208,0.22
				c-0.444,0.188-0.894,0.336-1.385,0.31c-0.315-0.018-0.618-0.095-0.924-0.159c-0.104-0.022-0.128-0.092-0.147-0.184
				c-0.103-0.511-0.124-1.025-0.069-1.543c0.027-0.265,0.046-0.53,0.109-0.79c0.033-0.14-0.004-0.267-0.101-0.371
				c-0.242-0.26-0.413-0.57-0.609-0.861c-0.274-0.411-0.434-0.869-0.495-1.355c-0.079-0.628,0.12-1.172,0.556-1.632
				c0.062-0.065,0.155-0.108,0.172-0.21c-0.945-0.041-1.894-0.068-2.832-0.198c-1.923-0.265-3.67-0.956-5.196-2.174
				c-0.367-0.294-0.724-0.598-1.078-0.906c-0.058-0.05-0.128-0.09-0.172-0.196c0.766-0.001,1.524,0.058,2.267-0.104
				c0.73-0.16,1.457-0.341,2.179-0.613c-0.089-0.087-0.168-0.075-0.242-0.079c-1.001-0.053-1.995-0.177-2.974-0.387
				c-2.3-0.493-4.306-1.533-5.955-3.231c-0.141-0.146-0.247-0.323-0.417-0.441c-0.294,0.817-0.52,1.654-0.701,2.504
				C0.6,39.128,0.408,40.57,0.283,42.021c-0.151,1.756-0.254,3.515-0.259,5.277c-0.004,1.222,0.041,2.443,0.137,3.661
				c0.15,1.914,0.434,3.808,1.068,5.632c0.543,1.56,1.298,3.015,2.15,4.423c0.413,0.683,0.851,1.35,1.288,2.018
				c1.836,2.804,3.154,5.821,3.816,9.117c0.269,1.335,0.477,2.68,0.633,4.032c0.063,0.541,0.015,1.082-0.093,1.613
				c-0.258,1.264-0.486,2.534-0.784,3.79c-0.147,0.625-0.368,1.227-0.584,1.83c-0.287,0.803-0.562,1.61-0.707,2.454
				c-0.15,0.871-0.321,1.738-0.439,2.614c-0.018,0.128,0.004,0.228,0.101,0.315c0.23,0.211,0.456,0.43,0.733,0.582
				C7.55,89.494,7.769,89.534,8,89.502c0.285-0.04,0.498-0.148,0.629-0.445c0.223-0.506,0.38-1.024,0.458-1.57
				c-0.001-0.021-0.008-0.044-0.004-0.065c0.004-0.026-0.002-0.066,0.041-0.064c0.015,0.001,0.037,0.026,0.042,0.044
				c0.008,0.027,0.005,0.058,0.007,0.087c0.129,0.652,0.271,1.303,0.441,1.945c0.05,0.193,0.056,0.198,0.23,0.162
				c1.125-0.236,2.239-0.51,3.312-0.939c0.856-0.342,1.496-0.929,1.976-1.7c0.454-0.73,0.555-1.515,0.326-2.346
				c-0.112-0.407-0.233-0.812-0.371-1.211c-0.257-0.748-0.375-1.511-0.343-2.306c0.049-1.24-0.066-2.469-0.326-3.686
				c-0.221-1.033-0.402-2.076-0.476-3.132c-0.068-0.985-0.075-1.972-0.02-2.958c0.052-0.939,0.141-1.873,0.269-2.805
				c0.099-0.722,0.2-1.442,0.307-2.162c0.022-0.155-0.003-0.291-0.069-0.431c-0.658-1.384-1.459-2.679-2.396-3.89
				c-0.25-0.322-0.532-0.617-0.812-0.912c-0.485-0.512-0.95-1.041-1.395-1.589c-0.968-1.192-1.562-2.556-1.87-4.051
				c-0.316-1.54-0.355-3.092-0.197-4.652c0.167-1.642,0.558-3.234,1.026-4.812C8.79,46,8.799,45.987,8.807,45.974
				c0.012-0.198,0.126-0.367,0.165-0.556c-0.047,0.204-0.031,0.421-0.115,0.62c-0.004,0.025-0.008,0.051-0.012,0.077
				c-0.001,0.015-0.003,0.031-0.004,0.046c-0.082,0.509-0.162,1.018-0.242,1.528c-0.166,1.06-0.297,2.124-0.37,3.195
				c-0.058,0.845-0.077,1.69-0.03,2.535c0.094,1.713,0.444,3.361,1.255,4.893c0.487,0.924,1.144,1.719,1.868,2.461
				c0.553,0.566,1.117,1.121,1.668,1.688c0.536,0.552,1.028,1.14,1.434,1.797c0.418,0.679,0.731,1.399,0.847,2.194
				c0.076,0.528,0.087,1.062,0.108,1.594c0.024,0.603,0.059,1.203,0.166,1.799c0.153,0.858,0.528,1.614,1.066,2.295
				c0.463,0.586,0.995,1.106,1.51,1.645c0.676,0.706,1.358,1.411,1.952,2.19c0.674,0.884,1.213,1.843,1.537,2.911
				c0.19,0.624,0.267,1.27,0.355,1.913c0.157,1.155,0.288,2.314,0.449,3.47c0.12,0.856,0.142,1.717-0.115,2.561
				c-0.094,0.308-0.233,0.597-0.353,0.894c-0.126,0.312-0.252,0.624-0.333,0.951c-0.161,0.644-0.094,1.245,0.274,1.82
				c0.484,0.757,1.089,1.387,1.807,1.922c0.979,0.729,2.045,1.297,3.159,1.784c0.143,0.062,0.285,0.125,0.438,0.193
				c0.026-0.073-0.015-0.124-0.034-0.176c-0.14-0.358-0.263-0.719-0.33-1.099c-0.09-0.51,0.016-0.979,0.255-1.427
				c0.062-0.116,0.128-0.259,0.277-0.26c0.163-0.001,0.231,0.147,0.286,0.276c0.183,0.425,0.302,0.87,0.425,1.315
				c0.047,0.173,0.087,0.35,0.164,0.513c0.158,0.338,0.36,0.423,0.702,0.281c0.41-0.17,0.769-0.417,1.09-0.723
				c0.321-0.305,0.579-0.66,0.804-1.036c0.445-0.746,0.885-1.494,1.319-2.246c0.208-0.36,0.376-0.738,0.479-1.144
				c0.147-0.582,0.062-1.133-0.212-1.66c-0.203-0.393-0.468-0.74-0.75-1.076c-0.262-0.312-0.529-0.62-0.785-0.938
				c-0.253-0.312-0.449-0.658-0.558-1.05c-0.083-0.3-0.092-0.601-0.018-0.903c0.055-0.221,0.109-0.441,0.138-0.666
				c0.044-0.334-0.046-0.619-0.284-0.857c-0.173-0.174-0.369-0.32-0.583-0.435c-0.701-0.373-1.164-0.956-1.502-1.656
				c-0.377-0.78-0.614-1.605-0.801-2.447c-0.343-1.53-0.557-3.078-0.673-4.643c-0.082-1.109-0.128-2.219-0.177-3.33
				c-0.006-0.139,0.033-0.205,0.167-0.255c0.375-0.14,0.762-0.233,1.154-0.305c0.098-0.018,0.174,0,0.254,0.073
				c0.513,0.476,1.075,0.885,1.697,1.209c0.097,0.051,0.146,0.138,0.206,0.22c0.74,1.028,1.182,2.18,1.411,3.42
				c0.046,0.246,0.107,0.489,0.157,0.734c0.178,0.869,0.602,1.622,1.104,2.338c0.112,0.161,0.225,0.321,0.337,0.48
				c0.464,0.655,0.579,1.388,0.498,2.17c-0.047,0.451-0.111,0.901-0.12,1.355c-0.006,0.283,0.02,0.562,0.083,0.84
				c0.12,0.515,0.422,0.882,0.89,1.115c0.503,0.252,1.047,0.314,1.598,0.314c0.769,0.002,1.53-0.098,2.285-0.243
				c0.792-0.151,1.57-0.355,2.345-0.576c0.304-0.086,0.328-0.113,0.246-0.426c-0.132-0.507-0.279-1.01-0.42-1.515
				c-0.035-0.127-0.074-0.253-0.127-0.436c0.077,0.091,0.123,0.137,0.158,0.188c0.328,0.48,0.78,0.832,1.22,1.197
				c0.053,0.044,0.111,0.093,0.188,0.084c0.241-0.028,0.479-0.069,0.699-0.184c0.042-0.021,0.045-0.058,0.053-0.096
				c0.39-0.259,0.68-0.612,0.938-0.996c0.073-0.107,0.051-0.191-0.045-0.286c-0.423-0.415-0.822-0.855-1.214-1.302
				c-0.53-0.604-1.062-1.209-1.622-1.787c-0.254-0.264-0.497-0.54-0.783-0.771c-0.151-0.184-0.324-0.344-0.499-0.505
				c-0.014-0.005-0.023-0.015-0.027-0.029l0-0.012l-0.013-0.001c-0.011-0.012-0.021-0.023-0.033-0.035
				c-0.082-0.144-0.222-0.234-0.325-0.358c-0.266-0.321-0.429-0.699-0.568-1.087c-0.232-0.642-0.332-1.315-0.42-1.988
				c-0.069-0.521-0.189-1.037-0.187-1.604c-0.309,0.363-0.587,0.696-0.811,1.071c-0.367,0.579-0.733,1.158-1.1,1.737
				c-0.042,0.065-0.084,0.132-0.124,0.193c-0.023,0-0.042,0.006-0.052-0.001c-0.262-0.169-0.262-0.169-0.156-0.453
				c0.165-0.438,0.33-0.878,0.494-1.317c0.248-0.661,0.557-1.294,0.917-1.898c0.626-1.052,1.448-1.918,2.481-2.587
				c0.735-0.477,1.486-0.931,2.201-1.438c1.718-1.219,3.14-2.729,4.336-4.456c1.071-1.546,1.941-3.193,2.505-4.994
				c0.288-0.92,0.469-1.865,0.632-2.813c0.191-1.105,0.255-2.224,0.335-3.34c0.018-0.258,0.046-0.516,0.045-0.773
				c0-0.231,0.062-0.412,0.272-0.527c0.046-0.025,0.084-0.062,0.134-0.1c0,0.284,0.011,0.546-0.002,0.807
				c-0.034,0.665-0.079,1.329-0.12,1.993c-0.054,0.899-0.17,1.792-0.305,2.683c-0.125,0.819-0.246,1.64-0.438,2.448
				c-0.43,1.812-1.142,3.505-2.107,5.095c-0.037,0.061-0.074,0.12-0.109,0.182c-0.007,0.012-0.004,0.029-0.008,0.055
				c0.245,0.145,0.494,0.292,0.742,0.439c0.72,0.428,1.429,0.872,2.11,1.36c0.96,0.688,1.819,1.484,2.57,2.396
				c0.483,0.587,0.944,1.19,1.399,1.798c0.803,1.068,1.334,2.259,1.59,3.57c0.295,1.513,0.781,2.962,1.451,4.349
				c0.083,0.122,0.129,0.261,0.172,0.401c-0.113-0.104-0.193-0.229-0.255-0.365c-0.939-1.428-1.61-2.983-2.163-4.593
				c-0.107-0.31-0.234-0.613-0.357-0.918c-0.641-1.6-1.729-2.854-3.047-3.926c-1.29-1.049-2.675-1.961-4.112-2.794
				c-0.291-0.169-0.579-0.343-0.864-0.521c-0.094-0.061-0.16-0.067-0.243,0.021c-0.354,0.373-0.714,0.742-1.081,1.123
				c0.311,0.396,0.64,0.812,0.963,1.234c1.697,2.21,3.418,4.402,5.03,6.676c1.476,2.082,2.867,4.222,4.268,6.352
				c0.598,0.909,1.192,1.819,1.792,2.728c0.127,0.192,0.215,0.397,0.271,0.619c0.358,1.427,0.639,2.869,0.899,4.316
				c0.148,0.819,0.444,1.594,0.734,2.372c0.164,0.438,0.351,0.868,0.45,1.33c0.119,0.554,0.142,1.117,0.178,1.68
				c0.023,0.359,0.055,0.718,0.116,1.073c0.17,0.984,0.734,1.688,1.57,2.199c0.498,0.305,1.05,0.436,1.62,0.515
				c0.061,0.008,0.127-0.003,0.177,0.047h1.41c0.125-0.074,0.27-0.061,0.406-0.075c0.598-0.065,1.191-0.167,1.787-0.255
				c0.194-0.029,0.202-0.039,0.182-0.242c-0.07-0.692-0.186-1.378-0.292-2.069c0.086,0.025,0.098,0.105,0.129,0.163
				c0.281,0.525,0.682,0.951,1.11,1.354c0.06,0.057,0.121,0.095,0.206,0.093c0.392-0.008,0.742-0.104,0.98-0.447
				c0.129-0.186,0.248-0.38,0.353-0.579C69.2,92.724,69.223,92.514,69.03,92.32 M21.218,66.218c0.167,0.234,0.341,0.462,0.542,0.731
				c-0.204-0.009-0.327-0.081-0.425-0.18c-0.333-0.328-0.744-0.475-1.195-0.535c-0.34-0.046-0.638-0.2-0.927-0.374
				c-0.146-0.088-0.235-0.229-0.26-0.399c-0.03-0.212,0.082-0.347,0.294-0.365c0.15-0.012,0.296,0.018,0.438,0.064
				C20.298,65.363,20.835,65.677,21.218,66.218 M23.541,69.167c-0.256-0.101-0.5-0.23-0.717-0.397
				c-0.851-0.655-1.836-0.988-2.866-1.222c-0.343-0.078-0.685-0.162-1.016-0.282c-0.117-0.043-0.232-0.093-0.345-0.145
				c-0.657-0.303-0.972-0.827-1.011-1.539c-0.031-0.58,0.082-1.136,0.262-1.683c0.172-0.52,0.407-1.017,0.587-1.532
				c0.36-1.039,0.506-2.111,0.521-3.207c0.014-1.027-0.086-2.048-0.218-3.065c-0.127-0.978-0.268-1.953-0.434-2.925
				c-0.002-0.015,0.004-0.03,0.011-0.075c0.272,0.23,0.523,0.442,0.772,0.653c0.07,0.06,0.095,0.137,0.108,0.227
				c0.204,1.314,0.402,2.631,0.495,3.959c0.079,1.136,0.049,2.269-0.212,3.385c-0.116,0.497-0.308,0.968-0.496,1.44
				c-0.225,0.566-0.449,1.134-0.564,1.736c-0.088,0.457-0.124,0.914-0.031,1.375c0.115,0.578,0.443,0.989,0.961,1.259
				c0.399,0.207,0.833,0.312,1.265,0.417c0.517,0.126,1.03,0.261,1.535,0.429c0.382,0.127,0.737,0.301,1.067,0.529
				c0.367,0.255,0.73,0.514,1.145,0.688c0.011,0.006,0.018,0.024,0.025,0.035C24.094,69.334,23.814,69.275,23.541,69.167
				 M29.316,66.407c-0.17-0.021-0.336-0.072-0.506-0.096c-0.443-0.062-0.854-0.003-1.2,0.315c-0.179,0.163-0.353,0.331-0.548,0.477
				c-0.286,0.214-0.57,0.225-0.891,0.005c0.364-0.429,0.731-0.832,1.18-1.154c0.471-0.337,0.993-0.523,1.576-0.515
				c0.173,0.002,0.343,0.025,0.504,0.094c0.191,0.08,0.289,0.233,0.32,0.432C29.794,66.231,29.594,66.439,29.316,66.407
				 M34.17,57.735c-0.144,0.737-0.279,1.477-0.342,2.225c-0.052,0.611-0.014,1.221,0.051,1.83c0.081,0.771,0.184,1.54,0.158,2.317
				c-0.016,0.479-0.076,0.95-0.265,1.398c-0.32,0.756-0.889,1.165-1.703,1.247c-0.352,0.034-0.702,0.055-1.054,0.008
				c-0.099-0.014-0.193-0.004-0.261,0.074c-0.263,0.3-0.583,0.286-0.946,0.173c0.068-0.062,0.14-0.044,0.198-0.054
				c0.368-0.065,0.582-0.298,0.606-0.669c0.017-0.25-0.047-0.481-0.175-0.694c-0.222-0.369-0.518-0.668-0.885-0.891
				c-0.299-0.182-0.632-0.217-0.975-0.185c-0.226,0.021-0.449,0.058-0.678,0.097c0.293-0.224,0.608-0.399,0.98-0.463
				c0.151-0.026,0.3-0.022,0.442,0.019c0.494,0.141,0.966,0.324,1.308,0.734c0.065,0.078,0.13,0.066,0.207,0.04
				c0.222-0.078,0.437-0.172,0.646-0.275c0.204-0.101,0.403-0.207,0.606-0.31c0.588-0.298,1-0.767,1.3-1.344
				c0.17-0.328,0.207-0.687,0.229-1.046c0.036-0.55-0.009-1.097-0.071-1.642c-0.124-1.087,0.053-2.119,0.543-3.098
				c0.052-0.104,0.115-0.204,0.174-0.305c0.011-0.02,0.021-0.043,0.066-0.035C34.277,57.169,34.225,57.452,34.17,57.735
				 M34.792,45.432c-0.123,0.605-0.225,1.215-0.421,1.803c-0.047,0.14-0.104,0.279-0.163,0.414c-0.343,0.79-0.939,1.246-1.791,1.381
				c-0.549,0.085-1.103,0.135-1.657,0.178c-0.742,0.056-1.484,0.098-2.227,0.146c-0.197,0.013-0.203,0.013-0.262,0.2
				c-0.126,0.403-0.214,0.816-0.314,1.227c-0.237,0.973-0.493,1.939-0.701,2.919c-0.346,1.623-0.643,3.253-0.793,4.909
				c-0.109,1.201-0.176,2.404-0.228,3.609c-0.008,0.186-0.003,0.373-0.064,0.588c-0.199-1.84-0.361-3.646-0.301-5.462
				c0.033-0.985,0.111-1.969,0.214-2.95c0.123-1.168,0.287-2.33,0.445-3.493c0.037-0.271,0.097-0.539,0.183-0.8
				c0.137-0.408,0.38-0.734,0.747-0.963c0.166-0.104,0.335-0.204,0.509-0.292c0.547-0.279,0.994-0.676,1.378-1.15
				c0.405-0.5,0.733-1.052,1.089-1.586c0.323-0.485,0.74-0.867,1.266-1.125c0.538-0.263,1.094-0.349,1.686-0.2
				c0.434,0.109,0.856,0.243,1.268,0.417C34.764,45.248,34.818,45.305,34.792,45.432 M34.734,39.715
				c-0.424-0.22-0.834-0.465-1.192-0.787c-0.629-0.565-0.841-1.279-0.751-2.101c0.042-0.398,0.144-0.782,0.267-1.163
				c0.226-0.697,0.637-1.268,1.172-1.757c0.046-0.042,0.086-0.091,0.149-0.11c0.014-0.016,0.029-0.032,0.043-0.048l-0.003,0.002
				c0.243-0.192,0.496-0.372,0.721-0.587c0.149-0.143,0.285-0.152,0.467-0.048c0.183,0.104,0.34,0.24,0.478,0.399
				c0.08,0.052,0.157,0.064,0.26,0.054c0.614-0.059,1.229-0.116,1.841-0.196c0.945-0.123,1.892-0.236,2.806-0.521
				c0.44-0.138,0.871-0.305,1.228-0.615c0.497-0.429,0.761-0.982,0.85-1.624c0.097-0.698-0.073-1.351-0.354-1.981
				c-0.284-0.638-0.657-1.225-1.047-1.802c-0.046-0.067-0.126-0.123-0.108-0.222c-0.059,0.012-0.073-0.031-0.086-0.074
				c-0.283-0.374-0.565-0.748-0.846-1.12c0.016-0.031,0.037-0.037,0.059-0.026c1.206,0.582,2.386,1.204,3.448,2.035
				c1.234,0.965,2.092,2.187,2.574,3.674c0.289,0.893,0.37,1.803,0.184,2.732c-0.158,0.792-0.581,1.405-1.225,1.88
				c-0.62,0.457-1.322,0.733-2.049,0.958c-0.98,0.302-1.981,0.516-2.978,0.751c-1.46,0.346-2.9,0.767-4.341,1.187
				c-0.116,0.035-0.173,0.089-0.145,0.214c0.008,0.031,0.003,0.062,0.006,0.094c0.057,0.542-0.182,0.775-0.764,0.896
				C35.171,39.856,34.941,39.823,34.734,39.715 M45.776,50.229c-0.129,0.354-0.291,0.692-0.48,1.018
				c-0.43,0.737-0.867,1.471-1.33,2.187c-0.376,0.581-0.803,1.121-1.351,1.554c-0.689,0.545-1.485,0.859-2.335,1.043
				c-0.959,0.209-1.935,0.297-2.913,0.33c-0.519,0.017-1.03,0.056-1.525,0.228c-0.145,0.051-0.301,0.071-0.429,0.1
				c-0.042-0.018-0.041-0.028-0.035-0.048c0.159-0.443,0.159-0.443,0.611-0.61c0.778-0.286,1.55-0.587,2.282-0.979
				c0.504-0.271,0.994-0.565,1.428-0.941c0.751-0.652,1.202-1.492,1.488-2.431c0.241-0.79,0.355-1.604,0.423-2.423
				c0.05-0.609,0.088-1.219,0.107-1.829c0.003-0.101,0.022-0.202,0.039-0.345c0.18,0.211,0.324,0.386,0.474,0.555
				c0.32,0.361,0.679,0.668,1.143,0.836c0.527,0.193,1.06,0.163,1.598,0.064c0.2-0.036,0.4-0.079,0.605-0.069
				c0.303,0.015,0.428,0.13,0.44,0.433C46.034,49.358,45.934,49.799,45.776,50.229 M48.171,38.801
				c-0.612,0.639-1.246,1.256-1.964,1.779c-1.02,0.742-2.167,1.167-3.397,1.4c-1.176,0.223-2.351,0.189-3.527,0.012
				c-0.271-0.041-0.542-0.076-0.813-0.113c-0.085-0.012-0.173-0.017-0.247-0.067c-0.033-0.023-0.059-0.016-0.081,0.01
				c-0.015,0.019-0.004,0.038,0.007,0.061c0.708,1.303,0.872,2.655,0.367,4.069c-0.385,1.08-0.913,2.091-1.492,3.077
				c-0.329,0.56-0.673,1.11-1.01,1.665c-0.026,0.089-0.084,0.155-0.153,0.236c0.005-0.113,0.033-0.196,0.087-0.271
				c0.384-1,0.747-2.006,0.985-3.053c0.337-1.483,0.473-2.98,0.369-4.5c-0.045-0.649-0.131-1.292-0.222-1.935
				c-0.018-0.123-0.004-0.23,0.046-0.34c0.261-0.572,0.55-0.724,1.16-0.564c0.476,0.124,0.944,0.28,1.418,0.412
				c0.697,0.192,1.407,0.298,2.133,0.275c1.051-0.034,2.033-0.326,2.971-0.784c0.669-0.327,1.286-0.744,1.887-1.181
				c0.153-0.112,0.307-0.177,0.498-0.163c0.331,0.025,0.655-0.024,0.973-0.086C48.193,38.763,48.187,38.783,48.171,38.801"/>
			<polygon clip-path="url(#SVGID_4_)" fill-rule="evenodd" clip-rule="evenodd" fill="#151719" points="41.562,26.608 
				41.562,26.609 41.564,26.609 			"/>
			<polygon clip-path="url(#SVGID_4_)" fill-rule="evenodd" clip-rule="evenodd" fill="#151719" points="16.418,18.335 
				16.419,18.335 16.42,18.335 			"/>
			<polygon clip-path="url(#SVGID_4_)" fill-rule="evenodd" clip-rule="evenodd" fill="#151719" points="16.138,18.572 
				16.14,18.573 16.14,18.571 			"/>
			<polygon clip-path="url(#SVGID_4_)" fill-rule="evenodd" clip-rule="evenodd" fill="#151719" points="16.188,18.53 16.19,18.529 
				16.19,18.528 			"/>
			<path clip-path="url(#SVGID_4_)" fill-rule="evenodd" clip-rule="evenodd" fill="#FFFFFF" d="M26.171,67.108
				c0.364-0.429,0.731-0.832,1.18-1.154c0.471-0.337,0.993-0.523,1.576-0.515c0.173,0.002,0.343,0.025,0.504,0.094
				c0.191,0.08,0.289,0.233,0.32,0.432c0.042,0.268-0.157,0.475-0.436,0.442c-0.17-0.02-0.336-0.072-0.506-0.096
				c-0.443-0.062-0.854-0.003-1.2,0.315c-0.179,0.163-0.353,0.331-0.548,0.477C26.776,67.317,26.492,67.328,26.171,67.108"/>
			<path clip-path="url(#SVGID_4_)" fill-rule="evenodd" clip-rule="evenodd" fill="#FFFFFF" d="M21.759,66.949
				c-0.204-0.009-0.327-0.081-0.425-0.18c-0.333-0.328-0.743-0.475-1.195-0.535c-0.34-0.046-0.638-0.2-0.927-0.374
				c-0.146-0.088-0.235-0.229-0.26-0.399c-0.03-0.212,0.082-0.347,0.294-0.365c0.15-0.012,0.296,0.018,0.438,0.064
				c0.614,0.203,1.152,0.517,1.534,1.058C21.384,66.452,21.559,66.68,21.759,66.949"/>
			<path clip-path="url(#SVGID_4_)" fill-rule="evenodd" clip-rule="evenodd" fill="#FFFFFF" d="M64.07,86.21
				c0.038,0.124,0.175,0.188,0.196,0.322c-0.387,0.146-0.781,0.274-1.159,0.44c-0.516,0.226-1.045,0.229-1.587,0.157
				c-0.226-0.029-0.438-0.114-0.656-0.168c-0.116-0.028-0.137-0.063-0.272-0.33c0.164,0.02,0.314,0.032,0.463,0.056
				c0.824,0.12,1.618,0.008,2.397-0.271C63.657,86.344,63.851,86.238,64.07,86.21"/>
			<path clip-path="url(#SVGID_4_)" fill-rule="evenodd" clip-rule="evenodd" fill="#FFFFFF" d="M36.085,33.516
				c-0.393,0.063-0.791,0.043-1.186,0.081c-0.143,0.014-0.278,0.011-0.36,0.16c-0.027,0.051-0.083,0.077-0.12-0.004
				c0.243-0.193,0.496-0.372,0.721-0.587c0.149-0.143,0.286-0.152,0.467-0.048C35.79,33.221,35.948,33.357,36.085,33.516"/>
			<path clip-path="url(#SVGID_4_)" fill-rule="evenodd" clip-rule="evenodd" fill="#FFFFFF" d="M8.856,46.037
				c-0.016-0.021-0.033-0.043-0.05-0.063c0.012-0.198,0.126-0.367,0.165-0.556C8.924,45.622,8.94,45.838,8.856,46.037"/>
			<path clip-path="url(#SVGID_4_)" fill-rule="evenodd" clip-rule="evenodd" fill="#B87132" d="M56.611,75.467
				c0.035,0.005,0.06-0.013,0.082-0.036c0.083,0.122,0.129,0.261,0.173,0.401C56.753,75.729,56.674,75.604,56.611,75.467"/>
			<path clip-path="url(#SVGID_4_)" fill-rule="evenodd" clip-rule="evenodd" fill="#B87132" d="M35.947,50.659
				c0.022,0.012,0.044,0.023,0.066,0.035c-0.026,0.089-0.084,0.155-0.153,0.236C35.865,50.817,35.893,50.734,35.947,50.659"/>
			<path clip-path="url(#SVGID_4_)" fill-rule="evenodd" clip-rule="evenodd" fill="#B87132" d="M16.188,18.53
				c0.048-0.1,0.119-0.172,0.231-0.195C16.396,18.462,16.308,18.516,16.188,18.53"/>
			<path clip-path="url(#SVGID_4_)" fill-rule="evenodd" clip-rule="evenodd" fill="#B87132" d="M15.571,19.086
				c0.07-0.107,0.15-0.202,0.277-0.247C15.783,18.954,15.692,19.037,15.571,19.086"/>
			<path clip-path="url(#SVGID_4_)" fill-rule="evenodd" clip-rule="evenodd" fill="#B87132" d="M15.894,18.797
				c0.032-0.097,0.104-0.151,0.197-0.181C16.069,18.725,15.991,18.772,15.894,18.797"/>
			<path clip-path="url(#SVGID_4_)" fill-rule="evenodd" clip-rule="evenodd" fill="#B87132" d="M9.173,87.487H9.087
				c-0.001-0.022-0.008-0.045-0.004-0.066c0.004-0.026-0.002-0.066,0.041-0.064c0.015,0.001,0.037,0.026,0.042,0.044
				C9.174,87.428,9.171,87.458,9.173,87.487"/>
			<path clip-path="url(#SVGID_4_)" fill-rule="evenodd" clip-rule="evenodd" fill="#B87132" d="M41.475,26.535
				c0.039,0.014,0.083,0.021,0.089,0.074C41.502,26.623,41.489,26.579,41.475,26.535"/>
			<path clip-path="url(#SVGID_4_)" fill-rule="evenodd" clip-rule="evenodd" fill="#FFFFFF" d="M8.84,46.16
				c-0.004-0.012-0.01-0.023-0.012-0.035c0-0.002,0.011-0.008,0.017-0.012C8.843,46.129,8.842,46.144,8.84,46.16"/>
			<path clip-path="url(#SVGID_4_)" fill-rule="evenodd" clip-rule="evenodd" fill="#B87132" d="M16.138,18.572
				c-0.001-0.036,0.016-0.05,0.052-0.044C16.198,18.571,16.18,18.586,16.138,18.572"/>
			<path clip-path="url(#SVGID_4_)" fill-rule="evenodd" clip-rule="evenodd" fill="#B87132" d="M16.09,18.617
				c-0.002-0.036,0.016-0.049,0.05-0.046C16.149,18.614,16.129,18.627,16.09,18.617"/>
			<path clip-path="url(#SVGID_4_)" fill-rule="evenodd" clip-rule="evenodd" fill="#FFFFFF" d="M34.453,33.77
				c-0.024,0.009-0.05,0.019-0.075,0.027c0.015-0.016,0.03-0.032,0.044-0.048C34.438,33.748,34.449,33.754,34.453,33.77"/>
			<path clip-path="url(#SVGID_4_)" fill-rule="evenodd" clip-rule="evenodd" fill="#B87132" d="M15.844,18.842
				c-0.001-0.037,0.014-0.054,0.052-0.046C15.896,18.831,15.878,18.846,15.844,18.842"/>
			<path clip-path="url(#SVGID_4_)" fill-rule="evenodd" clip-rule="evenodd" fill="#B87132" d="M15.512,19.14
				c0.009-0.031,0.026-0.053,0.061-0.055C15.571,19.123,15.548,19.138,15.512,19.14"/>
			<path clip-path="url(#SVGID_4_)" fill-rule="evenodd" clip-rule="evenodd" d="M39.341,75.024
				c-0.011-0.012-0.021-0.023-0.033-0.035C39.33,74.991,39.341,75.002,39.341,75.024"/>
			<path clip-path="url(#SVGID_4_)" fill-rule="evenodd" clip-rule="evenodd" d="M39.382,75.066
				c-0.014-0.005-0.023-0.015-0.027-0.029C39.375,75.036,39.385,75.046,39.382,75.066"/>
			<path clip-path="url(#SVGID_4_)" fill-rule="evenodd" clip-rule="evenodd" fill="#FFFFFF" d="M15.823,42.37
				c-0.228,0.02-0.419,0.042-0.613,0.054c-0.876,0.053-1.751,0.071-2.618-0.109c-0.494-0.101-0.963-0.27-1.411-0.496
				c-0.441-0.223-0.854-0.492-1.252-0.783c-0.03-0.021-0.064-0.04-0.074-0.086c0.097-0.016,0.171,0.036,0.25,0.063
				c0.79,0.278,1.591,0.517,2.419,0.651c0.65,0.105,1.306,0.136,1.964,0.104c0.258-0.012,0.517-0.021,0.775-0.033
				c0.08-0.003,0.162-0.008,0.198,0.083C15.537,42.017,15.667,42.181,15.823,42.37"/>
		</g>
	</g>
</g>
</svg>
